<?xml version="1.0" encoding="utf-8"?>
<svg viewBox="-1253.407 -883.448 3779.418 2317.274" xmlns="http://www.w3.org/2000/svg">
  <g transform="matrix(1.333333, 0, 0, -1.333333, -1491.332642, 1639.332886)" id="g10">
    <g transform="scale(0.1)" id="g12">
      <g transform="scale(1.96319)" id="g14"/>
      <g transform="scale(1.93747)" id="g18">
        <path id="path20" style="fill-opacity: 1; fill-rule: nonzero; stroke: none; fill: rgb(105, 157, 238);" d="m 1738.93,795.524 4665.36,24.258 1243.53,0.361 411.98,0.155 1245.96,0.361 5692.24,1.549 c 0,0 1302,1669.552 -88.7,3255.232 -1442,1644.09 -2143.1,305.14 -2586.4,2619.38 C 11207.3,12522.1 176.672,9131.64 3069.91,4174.58 4111.66,2389.72 1019.3,3338.38 1738.93,795.524"/>
      </g>
      <path id="path22" style="fill:#afcdfb;fill-opacity:1;fill-rule:nonzero;stroke:none" d="m 11684.7,3896.8 -48.9,26.8 c -52.2,28.5 -71.4,94.2 -42.8,146.4 l 224.5,410.1 c 28.6,52.2 94.3,71.4 146.5,42.8 l 70,-38.3 c 10.2,-5.6 14,-18.5 8.4,-28.7 -5.6,-10.2 -18.5,-14 -28.7,-8.4 l -70,38.4 c -31.8,17.4 -71.7,5.7 -89.1,-26.1 L 11630,4049.7 c -17.4,-31.7 -5.7,-71.7 26.1,-89.1 l 48.9,-26.8 c 31.7,-17.4 71.7,-5.7 89.1,26.1 l 149,272.2 c 5.6,10.2 18.5,14 28.7,8.4 10.2,-5.6 14,-18.4 8.4,-28.7 l -149.1,-272.2 c -28.6,-52.2 -94.2,-71.4 -146.4,-42.8"/>
      <path id="path24" style="fill:#afcdfb;fill-opacity:1;fill-rule:nonzero;stroke:none" d="m 11476.3,3466.2 -87.6,47.9 c -81.3,44.6 -108.7,151.7 -61,238.9 l 337.6,616.5 c 5.6,10.2 18.5,14 28.7,8.4 10.2,-5.6 14,-18.4 8.4,-28.7 l -337.6,-616.5 c -36.6,-66.7 -16.7,-148.2 44.2,-181.5 l 87.6,-48 c 60.9,-33.4 140.2,-6.2 176.8,60.5 l 384.5,702.3 c 36.6,66.7 16.7,148.2 -44.2,181.5 -10.2,5.6 -14,18.5 -8.4,28.7 5.6,10.2 18.5,14 28.7,8.4 81.3,-44.6 108.7,-151.7 61,-238.9 l -384.6,-702.3 c -47.7,-87.1 -152.7,-121.8 -234.1,-77.2"/>
      <g transform="scale(1.25126)" id="g26">
        <path id="path28" style="fill:#f7fafd;fill-opacity:1;fill-rule:nonzero;stroke:none" d="M 15917.3,4937.09 H 7322.13 c -211.3,0 -382.61,171.26 -382.61,382.57 v 7214.14 c 0,211.3 171.31,382.6 382.61,382.6 h 8595.17 c 211.4,0 382.7,-171.3 382.7,-382.6 V 5319.66 c 0,-211.31 -171.3,-382.57 -382.7,-382.57 m -3687.8,3867.94 c -35.9,0 -65,-29.09 -65,-64.99 0,-35.9 29.1,-65 65,-65 h 1325.4 c 35.9,0 65,29.1 65,65 0,35.9 -29.1,64.99 -65,64.99 h -1325.4 m -1208.6,0 c -35.9,0 -65,-29.09 -65,-64.99 0,-35.9 29.1,-65 65,-65 h 967.3 c 35.9,0 65,29.1 65,65 0,35.9 -29.1,64.99 -65,64.99 h -967.3 M 7681.33,11328.4 V 8675.04 H 10334.8 V 11328.4 H 7681.33 M 13882.4,9208.13 c -35.9,0 -65,-29.1 -65,-64.99 0,-35.9 29.1,-65 65,-65 h 676.7 c 35.9,0 65,29.1 65,65 0,35.89 -29.1,64.99 -65,64.99 h -676.7 m -2861.5,0 c -35.9,0 -65,-29.1 -65,-64.99 0,-35.9 29.1,-65 65,-65 h 2563.6 c 35.9,0 65,29.1 65,65 0,35.89 -29.1,64.99 -65,64.99 h -2563.6 m 1672.2,528.91 c -35.9,0 -65,-29.1 -65,-64.99 0,-35.9 29.1,-64.99 65,-64.99 h 2146.6 c 35.9,0 65,29.09 65,64.99 0,35.89 -29.1,64.99 -65,64.99 h -2146.6 m -1672.2,0 c -35.9,0 -65,-29.1 -65,-64.99 0,-35.9 29.1,-64.99 65,-64.99 h 1312.5 c 35.9,0 65,29.09 65,64.99 0,35.89 -29.1,64.99 -65,64.99 h -1312.5 m 2861.5,348.56 c -35.9,0 -65,-29.1 -65,-65 0,-35.9 29.1,-65 65,-65 h 676.7 c 35.9,0 65,29.1 65,65 0,35.9 -29.1,65 -65,65 h -676.7 m -1652.9,0 c -35.9,0 -65,-29.1 -65,-65 0,-35.9 29.1,-65 65,-65 h 1325.4 c 35.9,0 65,29.1 65,65 0,35.9 -29.1,65 -65,65 h -1325.4 m -1208.6,0 c -35.9,0 -65,-29.1 -65,-65 0,-35.9 29.1,-65 65,-65 h 967.3 c 35.9,0 65,29.1 65,65 0,35.9 -29.1,65 -65,65 h -967.3 m 2861.5,403.1 c -35.9,0 -65,-29.1 -65,-65 0,-35.9 29.1,-65 65,-65 h 676.7 c 35.9,0 65,29.1 65,65 0,35.9 -29.1,65 -65,65 h -676.7 m -2861.5,0 c -35.9,0 -65,-29.1 -65,-65 0,-35.9 29.1,-65 65,-65 h 2563.6 c 35.9,0 65,29.1 65,65 0,35.9 -29.1,65 -65,65 h -2563.6 m 35.3,842.5 c -55.4,0 -100.3,-44.9 -100.3,-100.3 0,-55.4 44.9,-100.3 100.3,-100.3 h 2110.6 c 55.4,0 100.2,44.9 100.2,100.3 0,55.4 -44.8,100.3 -100.2,100.3 h -2110.6 m 2523.8,134.5 c -55.4,0 -100.3,-44.9 -100.3,-100.3 0,-55.4 44.9,-100.3 100.3,-100.3 h 2110.5 c 55.4,0 100.3,44.9 100.3,100.3 0,55.4 -44.9,100.3 -100.3,100.3 H 13580"/>
      </g>
      <g transform="scale(1.25126)" id="g30">
        <path id="path32" style="fill-opacity: 1; fill-rule: nonzero; stroke: none; fill: rgb(145, 181, 248);" d="M 16300,12031 H 6939.52 v 599.8 c 0,157.7 127.89,285.6 285.64,285.6 h 8789.24 c 157.7,0 285.6,-127.9 285.6,-285.6 V 12031"/>
      </g>
      <path id="path34" style="fill:#dde7fe;fill-opacity:1;fill-rule:nonzero;stroke:none" d="m 9156.82,15614.6 c 0,73.1 59.3,132.4 132.45,132.4 73.15,0 132.45,-59.3 132.45,-132.4 0,-73.2 -59.3,-132.5 -132.45,-132.5 -73.15,0 -132.45,59.3 -132.45,132.5"/>
      <path id="path36" style="fill:#dde7fe;fill-opacity:1;fill-rule:nonzero;stroke:none" d="m 9712.75,15614.6 c 0,73.1 59.31,132.4 132.46,132.4 73.15,0 132.45,-59.3 132.45,-132.4 0,-73.2 -59.3,-132.5 -132.45,-132.5 -73.15,0 -132.46,59.3 -132.46,132.5"/>
      <path id="path38" style="fill:#dde7fe;fill-opacity:1;fill-rule:nonzero;stroke:none" d="m 10268.7,15614.6 c 0,73.1 59.3,132.4 132.4,132.4 73.2,0 132.5,-59.3 132.5,-132.4 0,-73.2 -59.3,-132.5 -132.5,-132.5 -73.1,0 -132.4,59.3 -132.4,132.5"/>
      <path id="path40" style="fill:#e2edfc;fill-opacity:1;fill-rule:nonzero;stroke:none" d="m 9611.37,10854.8 h 3320.13 v 3320.09 H 9611.37 Z"/>
      <g transform="scale(1.01844)" id="g42">
        <path id="path44" style="fill:#b9caf7;fill-opacity:1;fill-rule:nonzero;stroke:none" d="m 16176.9,13675.3 h -2593.1 c -68.1,0 -123.3,55.1 -123.3,123.2 0,68 55.2,123.2 123.3,123.2 h 2593.1 c 68,0 123.1,-55.2 123.1,-123.2 0,-68.1 -55.1,-123.2 -123.1,-123.2"/>
      </g>
      <g transform="scale(1.21218)" id="g46">
        <path id="path48" style="fill:#b9caf7;fill-opacity:1;fill-rule:nonzero;stroke:none" d="m 16196.5,11628.4 h -2178.6 c -57.2,0 -103.5,46.3 -103.5,103.5 0,57.2 46.3,103.5 103.5,103.5 h 2178.6 c 57.1,0 103.5,-46.3 103.5,-103.5 0,-57.2 -46.4,-103.5 -103.5,-103.5"/>
      </g>
      <g transform="scale(1.0478)" id="g50">
        <path id="path52" style="fill:#e5eefc;fill-opacity:1;fill-rule:nonzero;stroke:none" d="M 16222.4,12370.2 H 13161 c -42.9,0 -77.7,34.7 -77.7,77.6 0,42.9 34.8,77.6 77.7,77.6 h 3061.4 c 42.9,0 77.6,-34.7 77.6,-77.6 0,-42.9 -34.7,-77.6 -77.6,-77.6"/>
      </g>
      <g transform="scale(1.12261)" id="g54">
        <path id="path56" style="fill:#e5eefc;fill-opacity:1;fill-rule:nonzero;stroke:none" d="m 16227.6,11545.8 h -754.3 c -40,0 -72.4,32.4 -72.4,72.4 0,40 32.4,72.5 72.4,72.5 h 754.3 c 40,0 72.4,-32.5 72.4,-72.5 0,-40 -32.4,-72.4 -72.4,-72.4"/>
      </g>
      <path id="path58" style="fill:#e5eefc;fill-opacity:1;fill-rule:nonzero;stroke:none" d="m 15000.4,12457.1 h -1210.3 c -45,0 -81.4,36.4 -81.4,81.3 0,44.9 36.4,81.3 81.4,81.3 h 1210.3 c 44.9,0 81.3,-36.4 81.3,-81.3 0,-44.9 -36.4,-81.3 -81.3,-81.3"/>
      <g transform="scale(1.04553)" id="g60">
        <path id="path62" style="fill:#e5eefc;fill-opacity:1;fill-rule:nonzero;stroke:none" d="M 16222.1,11914.6 H 14636 c -43,0 -77.8,34.9 -77.8,77.8 0,43 34.8,77.8 77.8,77.8 h 1586.1 c 43.1,0 77.9,-34.8 77.9,-77.8 0,-42.9 -34.8,-77.8 -77.9,-77.8"/>
      </g>
      <g transform="scale(1.12261)" id="g64">
        <path id="path66" style="fill:#e5eefc;fill-opacity:1;fill-rule:nonzero;stroke:none" d="m 16227.6,11096.5 h -754.3 c -40,0 -72.4,32.4 -72.4,72.4 0,40.1 32.4,72.5 72.4,72.5 h 754.3 c 40,0 72.4,-32.4 72.4,-72.5 0,-40 -32.4,-72.4 -72.4,-72.4"/>
      </g>
      <path id="path68" style="fill:#e5eefc;fill-opacity:1;fill-rule:nonzero;stroke:none" d="m 15432.3,12021 h -1642.2 c -45,0 -81.4,36.4 -81.4,81.3 0,44.9 36.4,81.3 81.4,81.3 h 1642.2 c 45,0 81.4,-36.4 81.4,-81.3 0,-44.9 -36.4,-81.3 -81.4,-81.3"/>
      <g transform="scale(1.14415)" id="g70">
        <path id="path72" style="fill:#e5eefc;fill-opacity:1;fill-rule:nonzero;stroke:none" d="m 16228.9,10506.4 h -2347.5 c -39.3,0 -71.1,31.8 -71.1,71.1 0,39.3 31.8,71.1 71.1,71.1 h 2347.5 c 39.3,0 71.1,-31.8 71.1,-71.1 0,-39.3 -31.8,-71.1 -71.1,-71.1"/>
      </g>
      <g transform="scale(1.0478)" id="g74">
        <path id="path76" style="fill:#e5eefc;fill-opacity:1;fill-rule:nonzero;stroke:none" d="M 16222.4,10841 H 13161 c -42.9,0 -77.7,34.7 -77.7,77.6 0,42.9 34.8,77.6 77.7,77.6 h 3061.4 c 42.9,0 77.6,-34.7 77.6,-77.6 0,-42.9 -34.7,-77.6 -77.6,-77.6"/>
      </g>
      <g transform="scale(1.12261)" id="g78">
        <path id="path80" style="fill:#e5eefc;fill-opacity:1;fill-rule:nonzero;stroke:none" d="m 16227.6,10118.5 h -754.3 c -40,0 -72.4,32.4 -72.4,72.4 0,40 32.4,72.5 72.4,72.5 h 754.3 c 40,0 72.4,-32.5 72.4,-72.5 0,-40 -32.4,-72.4 -72.4,-72.4"/>
      </g>
      <path id="path82" style="fill:#e5eefc;fill-opacity:1;fill-rule:nonzero;stroke:none" d="m 15000.4,10854.8 h -1210.3 c -45,0 -81.4,36.4 -81.4,81.3 0,44.9 36.4,81.3 81.4,81.3 h 1210.3 c 44.9,0 81.3,-36.4 81.3,-81.3 0,-44.9 -36.4,-81.3 -81.3,-81.3"/>
      <g transform="scale(1.04553)" id="g84">
        <path id="path86" style="fill:#e5eefc;fill-opacity:1;fill-rule:nonzero;stroke:none" d="M 16222.1,10382.1 H 14636 c -43,0 -77.8,34.8 -77.8,77.8 0,42.9 34.8,77.8 77.8,77.8 h 1586.1 c 43.1,0 77.9,-34.9 77.9,-77.8 0,-43 -34.8,-77.8 -77.9,-77.8"/>
      </g>
      <path id="path88" style="fill:#bdd1f9;fill-opacity:1;fill-rule:nonzero;stroke:none" d="m 11629.3,12395.7 -363.9,842.1 -360.9,-842.1 z m -529.3,1284.2 h 342.9 l 926.3,-2120.4 h -391 l -213.5,508.3 h -995.6 l -216.5,-508.3 h -379 l 926.4,2120.4"/>
      <path id="path90" style="fill:#f99746;fill-opacity:1;fill-rule:nonzero;stroke:none" d="M 11466,9827.9 H 9611.37 V 10186 H 11466 v -358.1"/>
      <path id="path92" style="fill:#ed7d2b;fill-opacity:1;fill-rule:nonzero;stroke:none" d="M 11466,9469.9 H 9611.37 v 358 H 11466 v -358"/>
      <path id="path94" style="fill:#474fea;fill-opacity:1;fill-rule:nonzero;stroke:none" d="M 11466,9111.9 H 9611.37 v 358 H 11466 v -358"/>
      <path id="path96" style="fill:#bdd1f9;fill-opacity:1;fill-rule:nonzero;stroke:none" d="m 12832.5,9983.3 h -1020.4 c -42.7,0 -77.4,34.6 -77.4,77.3 0,42.7 34.7,77.3 77.4,77.3 h 1020.4 c 42.7,0 77.3,-34.6 77.3,-77.3 0,-42.7 -34.6,-77.3 -77.3,-77.3"/>
      <path id="path98" style="fill:#bdd1f9;fill-opacity:1;fill-rule:nonzero;stroke:none" d="m 12488.7,9710.8 h -676.6 c -42.7,0 -77.4,34.6 -77.4,77.3 0,42.7 34.7,77.3 77.4,77.3 h 676.6 c 42.7,0 77.3,-34.6 77.3,-77.3 0,-42.7 -34.6,-77.3 -77.3,-77.3"/>
      <path id="path100" style="fill:#f99746;fill-opacity:1;fill-rule:nonzero;stroke:none" d="M 11466,7603.2 H 9611.37 v 731.6 H 11466 v -731.6"/>
      <path id="path102" style="fill:#b5453c;fill-opacity:1;fill-rule:nonzero;stroke:none" d="M 11466,7260.6 H 9611.37 v 523.2 H 11466 v -523.2"/>
      <path id="path104" style="fill:#474fea;fill-opacity:1;fill-rule:nonzero;stroke:none" d="m 9611.37,8334.8 665.33,-558.9 -665.33,-515.3 z"/>
      <path id="path106" style="fill:#bdd1f9;fill-opacity:1;fill-rule:nonzero;stroke:none" d="m 12832.5,8132.1 h -1020.4 c -42.7,0 -77.4,34.6 -77.4,77.3 0,42.7 34.7,77.3 77.4,77.3 h 1020.4 c 42.7,0 77.3,-34.6 77.3,-77.3 0,-42.7 -34.6,-77.3 -77.3,-77.3"/>
      <path id="path108" style="fill:#bdd1f9;fill-opacity:1;fill-rule:nonzero;stroke:none" d="m 12488.7,7859.5 h -676.6 c -42.7,0 -77.4,34.6 -77.4,77.3 0,42.7 34.7,77.4 77.4,77.4 h 676.6 c 42.7,0 77.3,-34.7 77.3,-77.4 0,-42.7 -34.6,-77.3 -77.3,-77.3"/>
      <g transform="scale(1.26148)" id="g110">
        <path id="path112" style="fill:#233862;fill-opacity:1;fill-rule:nonzero;stroke:none" d="m 16261.7,12095 c 0,0 38.3,-456.3 -65.6,-449.4 -104,6.9 -309.3,207.8 -723.5,175.1 -414.3,-32.6 -921.2,-123.3 -1227.6,418.9 -306.4,542.2 391.9,698.2 391.9,698.2 l 1624.8,-842.8"/>
      </g>
      <g transform="scale(1.35527)" id="g114">
        <path id="path116" style="fill:#2b478b;fill-opacity:1;fill-rule:nonzero;stroke:none" d="m 14316.6,11289.1 1943,-159.8 40.4,86.5 -1862.7,1375 -1881.6,219.8 -36.2,-77.3 1797.1,-1444.2"/>
      </g>
      <g transform="scale(1.30126)" id="g118">
        <path id="path120" style="fill:#f99746;fill-opacity:1;fill-rule:nonzero;stroke:none" d="m 16288.1,10233.7 c -12,41.7 -55.4,65.8 -97.1,53.9 -41.6,-12 -65.7,-55.4 -53.8,-97.1 11.9,-41.6 55.4,-65.7 97,-53.8 41.7,11.9 65.8,55.4 53.9,97"/>
      </g>
      <g transform="scale(1.30291)" id="g122">
        <path id="path124" style="fill:#f99746;fill-opacity:1;fill-rule:nonzero;stroke:none" d="m 16200,10198.9 c 81,6.4 100,-731.22 100,-731.22 0,0 -52.9,-24.85 -78.8,-19.01 -26,5.85 -39.3,105.44 -39.3,105.44 l -2.5,-104.42 c 0,0 -88.9,-3.1 -119.7,18.54 0,0 12,720.77 140.3,730.67"/>
      </g>
      <g transform="scale(1.29703)" id="g126">
        <path id="path128" style="fill:#f99746;fill-opacity:1;fill-rule:nonzero;stroke:none" d="m 16300,10228.5 -14.7,1618.8 -10.5,7.8 -1060.4,784.5 -38.1,-51.6 1049.8,-776.6 23.8,-1580.1 50.1,-2.8"/>
      </g>
      <g transform="scale(1.4592)" id="g130">
        <path id="path132" style="fill:#fcecdb;fill-opacity:1;fill-rule:nonzero;stroke:none" d="M 15704.7,2303.46 H 11740.3 V 3809.7 h 3977.6 c 321.5,0 582.1,-260.62 582.1,-582.1 v -328.81 c 0,-328.81 -266.5,-595.33 -595.3,-595.33"/>
      </g>
      <g transform="scale(1.76364)" id="g134">
        <path id="path136" style="fill-opacity: 1; fill-rule: nonzero; stroke: none; fill: rgb(167, 194, 237);" d="m 16300,2639.32 v -187.46 c 0,-100.19 -25.2,-194.03 -69.2,-274.66 -88.4,-162.27 -252.7,-271.31 -440.9,-271.31 H 9612.63 c -40.88,0 -74,35.44 -74,79.1 v 28.07 c 0,43.71 33.12,79.15 74,79.15 h 3765.57 c 20.1,26.25 37.9,54.72 52.8,84.99 35.3,71.11 55.3,152.19 55.3,238.26 v 238.32 c 0,43.83 -5.3,86.41 -15.3,126.84 -16.9,68.6 -47,131.43 -87.3,185.07 H 9612.63 c -40.88,0 -74,35.44 -74,79.21 v 28.01 c 0,43.72 33.12,79.15 74,79.15 H 15821 c 218.7,0 403.2,-156.94 460.5,-371.44 12.1,-44.91 18.5,-92.31 18.5,-141.3"/>
      </g>
      <g transform="scale(1.76164)" id="g138">
        <path id="path140" style="fill-opacity: 1; fill-rule: nonzero; stroke: none; fill: rgb(59, 106, 172);" d="m 16300,2783.77 h -2813.7 c -16.9,68.69 -47.1,131.59 -87.4,185.29 H 9623.54 c -40.92,0 -74.08,35.47 -74.08,79.3 v 28.04 c 0,43.77 33.16,79.24 74.08,79.24 H 15839 c 219,0 403.7,-157.12 461,-371.87"/>
      </g>
      <g transform="scale(1.10049)" id="g142">
        <path id="path144" style="fill:#f4d2b8;fill-opacity:1;fill-rule:nonzero;stroke:none" d="m 15567.1,4052.92 732.9,-33.62 -732.9,-20.18 v 53.8"/>
      </g>
      <g transform="scale(1.16874)" id="g146">
        <path id="path148" style="fill:#f4d2b8;fill-opacity:1;fill-rule:nonzero;stroke:none" d="m 14658,3521.14 1642,-31.58 -1642,-19.08 v 50.66"/>
      </g>
      <g transform="scale(1.34753)" id="g150">
        <path id="path152" style="fill:#f99746;fill-opacity:1;fill-rule:nonzero;stroke:none" d="M 12085.9,1229.13 H 16300 v 1268.62 h -4251.3 c -315.7,0 -571.7,-255.95 -571.7,-571.64 v -88.23 c 0,-336.17 272.6,-608.75 608.9,-608.75"/>
      </g>
      <g transform="scale(1.72781)" id="g154">
        <path id="path156" style="fill:#fcecdb;fill-opacity:1;fill-rule:nonzero;stroke:none" d="M 12554.2,958.613 H 16300 v 989.407 h -3756.1 c -250.4,0 -453.3,-202.92 -453.3,-453.29 v -72.52 c 0,-256.05 207.5,-463.597 463.6,-463.597"/>
      </g>
      <g transform="scale(1.74851)" id="g158">
        <path id="path160" style="fill:#f99746;fill-opacity:1;fill-rule:nonzero;stroke:none" d="m 11702.9,947.264 h 4529 c 37.6,0 68.1,30.426 68.1,67.996 v 10.18 c 0,37.58 -30.5,68 -68.1,68 h -4529 c -37.6,0 -68.1,-30.42 -68.1,-68 v -10.18 c 0,-37.57 30.5,-67.996 68.1,-67.996"/>
      </g>
      <g transform="scale(1.74851)" id="g162">
        <path id="path164" style="fill:#f99746;fill-opacity:1;fill-rule:nonzero;stroke:none" d="m 11702.9,1778.77 h 4529 c 37.6,0 68.1,30.43 68.1,68 v 10.18 c 0,37.58 -30.5,68 -68.1,68 h -4529 c -37.6,0 -68.1,-30.42 -68.1,-68 v -10.18 c 0,-37.57 30.5,-68 68.1,-68"/>
      </g>
      <g transform="scale(1.72781)" id="g166">
        <path id="path168" style="fill:#f4d2b8;fill-opacity:1;fill-rule:nonzero;stroke:none" d="m 16300,1453.28 -510.4,-16.61 510.4,-10.01 v 26.62"/>
      </g>
      <g transform="scale(1.72781)" id="g170">
        <path id="path172" style="fill:#f4d2b8;fill-opacity:1;fill-rule:nonzero;stroke:none" d="m 16300,1681.03 -1214.1,-16.67 1214.1,-10.01 v 26.68"/>
      </g>
      <g transform="scale(1.64087)" id="g174">
        <path id="path176" style="fill:#699dee;fill-opacity:1;fill-rule:nonzero;stroke:none" d="m 15898.3,1756.08 c 0,0 54.8,-44.79 73,-118.35 3.1,-12.86 5.2,-26.7 5.6,-41.2 3.1,-97.75 0,-319.04 0,-319.04 l 161.8,110.68 161.3,-110.68 v 299.9 c 0,56.74 -13.8,111.89 -39.6,147.97 -12.4,17.56 -27.5,30.72 -44.6,30.72 h -317.5"/>
      </g>
      <g transform="scale(1.64041)" id="g178">
        <path id="path180" style="fill:#568cdb;fill-opacity:1;fill-rule:nonzero;stroke:none" d="m 15902.8,1756.57 c 0,0 54.8,-44.8 73,-118.38 l 324.2,-4.39 c 0,0 -12.7,105.4 -79.7,122.77 h -317.5"/>
      </g>
      <g transform="scale(1.36069)" id="g182">
        <path id="path184" style="fill:#fcecdb;fill-opacity:1;fill-rule:nonzero;stroke:none" d="m 15625.1,4082.11 h -4107.7 v 1845.9 H 15640 c 364.5,0 660,-295.44 660,-659.96 v -510.99 c 0,-372.75 -302.2,-674.95 -674.9,-674.95"/>
      </g>
      <g transform="scale(1.65846)" id="g186">
        <path id="path188" style="fill:#afcdfb;fill-opacity:1;fill-rule:nonzero;stroke:none" d="m 13375.4,4276.07 v -325.96 c -0.9,-139.23 -65.4,-260 -160.2,-324.58 -46.7,-31.65 -100.6,-49.8 -158,-49.8 H 9346.26 c -43.47,0 -78.75,-42.09 -78.75,-94.07 v -38.46 c 0,-51.92 35.28,-94.01 78.75,-94.01 H 15757 c 184,0 346.6,109.2 444.7,276.34 61.9,105.34 98.3,233.59 98.3,372.1 v 257.16 c 0,94.91 -18.2,184.75 -50.7,264.82 -82.4,203.63 -257,344.06 -459.1,344.06 H 9346.26 c -43.47,0 -78.75,-42.03 -78.75,-94 v -38.41 c 0,-51.98 35.28,-94.07 78.75,-94.07 h 3722.34 c 89,0 169.5,-45.22 225.7,-117.58 49.8,-64.15 80.6,-149.53 81.1,-243.54"/>
      </g>
      <g transform="scale(1.64846)" id="g190">
        <path id="path192" style="fill:#a4c4f4;fill-opacity:1;fill-rule:nonzero;stroke:none" d="m 9323.73,3502.78 v -38.7 c 0,-52.23 35.49,-94.57 79.23,-94.57 h 6449.64 c 185.1,0 348.6,109.86 447.4,278.02 h -3004.6 c -47,-31.85 -101.3,-50.11 -159,-50.11 H 9402.96 c -43.74,0 -79.23,-42.34 -79.23,-94.64"/>
      </g>
      <g transform="scale(1.00986)" id="g194">
        <path id="path196" style="fill:#f4d2b8;fill-opacity:1;fill-rule:nonzero;stroke:none" d="m 15518.7,6743.92 781.3,-41.8 -781.3,-25.25 v 67.05"/>
      </g>
      <g transform="scale(1.07661)" id="g198">
        <path id="path200" style="fill:#f4d2b8;fill-opacity:1;fill-rule:nonzero;stroke:none" d="m 14556.6,6862.67 1743.4,-39.2 -1743.4,-23.59 v 62.79"/>
      </g>
      <g transform="scale(1.07542)" id="g202">
        <path id="path204" style="fill:#f99746;fill-opacity:1;fill-rule:nonzero;stroke:none" d="m 16300,6838.8 c 0,0 -115.2,-74.11 -153.3,-195.83 -6.8,-21.3 -11.1,-44.08 -12,-68.07 -6.4,-161.8 0,-527.79 0,-527.79 l -340.1,183 -339.2,-183 v 496.08 c 0,93.83 29.1,185.14 83.1,244.84 26.3,29.01 58.1,50.77 94,50.77 h 667.5"/>
      </g>
      <g transform="scale(1.07542)" id="g206">
        <path id="path208" style="fill:#ed7d2b;fill-opacity:1;fill-rule:nonzero;stroke:none" d="m 16300,6838.8 c 0,0 -115.2,-74.11 -153.3,-195.83 l -681.5,-7.26 c 0,0 26.7,174.35 167.3,203.09 h 667.5"/>
      </g>
      <path id="path210" style="fill:#ed985f;fill-opacity:1;fill-rule:nonzero;stroke:none" d="m 8186.8,5776.7 c 0,0 1145.68,-499.2 1353.64,-490.1 207.96,9.1 1489.46,390.3 1489.46,390.3 l -32.7,-220.4 c 0,0 -988.9,-568.8 -1334.65,-601.1 -340.39,-31.7 -1504.31,305.5 -1616.68,376.7 -112.37,71.2 -185.63,472.5 140.93,544.6"/>
      <path id="path212" style="fill:#233862;fill-opacity:1;fill-rule:nonzero;stroke:none" d="m 8014.66,7612.9 c 0,0 -422.65,80.3 -633.14,-73.4 C 7000.21,7261 6979.73,6301 6836.82,6158 c -142.91,-143 -487.4,-82 -518.07,-822 -30.66,-739.9 137.15,-801.8 -62.71,-1132.1 -199.86,-330.3 84.56,-660.9 84.56,-660.9 0,0 -116.5,182.3 -66.57,313.9 0,0 48.49,-290.4 233.02,-358.5 184.53,-68.1 211.83,-118 241.3,-217.9 0,0 1574.26,806.7 1575.97,1378.9 1.72,572.1 309.79,1138.9 158.51,1386.8 0,0 67.38,-106 75.64,-224 0,0 90.77,173.9 -66.57,335.8 -157.33,161.9 184.57,497 133.95,885 -34.76,266.4 -221.69,558.3 -611.19,569.9"/>
      <path id="path214" style="fill:#ffb27d;fill-opacity:1;fill-rule:nonzero;stroke:none" d="m 8326.04,5231.5 c -100.62,-69.8 -226.79,-127.3 -385.17,-163.9 -593.71,-137.2 -821.23,364.6 -906.68,709.1 80.97,46.3 157.15,56.5 201.15,61.8 42.91,5 88.04,8.4 125.41,10.2 66.67,51.1 166.01,260.1 187.98,584.6 l 27.93,-7.5 467.9,-128.1 c 0,0 -21.43,-148.7 -31.94,-289.3 -8.12,-110 -9.4,-215.2 11.44,-240.9 36.51,-7.9 58.43,-13.1 58.43,-13.1 l 0.23,-0.4 c 6.28,-10.3 142.03,-233.6 243.32,-522.5"/>
      <path id="path216" style="fill:#ed985f;fill-opacity:1;fill-rule:nonzero;stroke:none" d="m 8044.58,6297.6 c 0,0 -21.51,-148.6 -31.93,-289.3 -265.09,26.5 -388.11,278.9 -436,417.4 l 467.93,-128.1"/>
      <path id="path218" style="fill:#ffb27d;fill-opacity:1;fill-rule:nonzero;stroke:none" d="m 8123.74,6158 c 0,0 -629.22,34.7 -601.57,426.2 27.65,391.5 -34.93,659.7 367.97,654.1 402.91,-5.6 470.32,-160.5 492.88,-293.5 22.56,-132.9 -94.9,-785.7 -259.28,-786.8"/>
      <path id="path220" style="fill:#233862;fill-opacity:1;fill-rule:nonzero;stroke:none" d="m 8379.95,7163.8 c -88.7,124.8 -163.97,104.2 -207.64,71.7 -329.97,213.5 -571.34,-49.8 -571.34,-49.8 -62.19,-277.9 -276.29,-424.3 -276.29,-424.3 0,0 109.47,-78.9 378.42,-30 82.15,15 158.29,67.2 224.49,132.3 -119.72,-171.5 -274.45,-290.1 -274.45,-290.1 325.9,123.2 484.05,552.8 499.99,598.3 35.9,-37.2 106.15,-117.5 123.95,-192.5 24.17,-101.9 128.48,-261.3 188.79,-258.6 0,0 47.1,256 -85.92,443"/>
      <path id="path222" style="fill:#f9ddbf;fill-opacity:1;fill-rule:nonzero;stroke:none" d="m 6854.97,3952.2 c -56.82,290.5 -242.09,1451 -56.82,1824.5 66.54,134.1 327.63,146.2 614.09,134.5 89.14,-57.6 428.8,-275 568.31,-247.9 1.5,0.3 4.21,0.9 7.81,1.8 65.7,16.5 90.5,62.6 35.7,102.4 -0.11,0.1 141.88,13.7 318.07,-19.5 99.52,-18.7 367.93,-157.6 367.93,-157.6 0,0 -135.17,-244.2 -334.48,-328.5 33.89,-303.2 -16.51,-436.9 -331.03,-1137.2 -265.79,-591.9 35.85,-1124.8 35.85,-1124.8 0,0 -1564.56,-1258 -1573.27,-617.5 -6.53,482.2 420.46,1198.6 347.84,1569.8"/>
      <path id="path224" style="fill:#dd6d22;fill-opacity:1;fill-rule:nonzero;stroke:none" d="m 8157.96,1632 c 85.09,9.6 161.69,56.2 209.26,127.4 7.55,11.3 15.62,23.5 24.19,36.4 178.09,269.6 247.38,1095.3 647.97,1974.9 97.57,214.1 447.81,252.6 543.31,494.7 0,0 235.06,784.6 -449.91,807.8 C 8447.81,5096.3 7298.32,2890 7280.17,2658.6 7262.58,2434.5 6827.31,1481.9 8157.96,1632"/>
      <path id="path226" style="fill:#233862;fill-opacity:1;fill-rule:nonzero;stroke:none" d="m 10880.4,1650.1 h -974.9 c 0,0 -36.45,155.5 27.56,261.3 56.66,93.6 34.94,146.9 -7.02,224.4 44.17,-18.1 101.26,-34.5 164.16,-30.9 48.6,2.8 100,24.8 145,51 42,-47.9 221.7,-251.5 277.8,-291.8 63.7,-45.8 347.8,-29.5 367.4,-214"/>
      <path id="path228" style="fill:#ed7d2b;fill-opacity:1;fill-rule:nonzero;stroke:none" d="m 9604.97,4846.3 c 58.71,-440.1 287.95,-1829.2 692.33,-2506.9 130.4,-218.5 -328.46,-341 -330.93,-340.3 -61.55,16.1 -164.07,114.2 -211.33,156.8 -328.31,295.9 -994.79,1133.7 -994.79,1805.4 0,327.5 -5.75,953.1 232.42,1112 146.67,97.9 588.99,-52.1 612.3,-227"/>
      <path id="path230" style="fill:#f99746;fill-opacity:1;fill-rule:nonzero;stroke:none" d="m 7576.61,1650.1 c 0,0 36.13,50.3 99.13,145.7 74.98,113.6 157.94,337.1 258.61,623.6 105.75,300.7 231.2,670.7 387.96,1055.6 48.38,118.9 99.76,239.2 154.4,359.2 97.58,214.2 366,184.6 461.49,426.7 0,0 372.62,839.2 -312.35,862.3 C 7940.88,5146.4 6639.3,2878.3 6564.5,2658.6 6482.62,2418.2 6083.13,1419.7 7576.61,1650.1"/>
      <path id="path232" style="fill:#2b478b;fill-opacity:1;fill-rule:nonzero;stroke:none" d="m 10164.8,1650.1 h -974.97 c 0,0 -36.44,155.5 27.56,261.3 56.66,93.6 34.94,146.9 -7.01,224.4 44.16,-18.1 101.29,-34.5 164.2,-30.9 48.57,2.8 99.94,24.8 144.99,51 41.95,-47.9 221.63,-251.5 277.77,-291.8 63.71,-45.8 347.76,-29.5 367.46,-214"/>
      <path id="path234" style="fill:#ed7d2b;fill-opacity:1;fill-rule:nonzero;stroke:none" d="m 7934.35,2419.4 c 105.75,300.7 231.2,670.7 387.96,1055.6 -40.94,291.7 -129.26,546.9 -277.76,649.7 0,0 -360.28,-1116.1 -110.2,-1705.3"/>
      <path id="path236" style="fill:#f99746;fill-opacity:1;fill-rule:nonzero;stroke:none" d="m 9035.87,4877.5 c 58.71,-440.1 141.39,-1860.4 545.79,-2538.1 130.38,-218.5 -328.48,-341 -330.96,-340.3 -61.54,16.1 -164.07,114.2 -211.32,156.8 -328.32,295.9 -994.8,1133.7 -994.8,1805.4 0,327.5 384.38,926.8 622.53,1085.8 146.68,97.9 345.44,5.3 368.76,-169.6"/>
      <path id="path238" style="fill:#ffffff;fill-opacity:1;fill-rule:nonzero;stroke:none" d="m 8241.53,6383.2 c 0,0 -59.48,23.5 -226.87,9.9 0,0 8.89,-65.3 132.34,-71.7 69.92,-3.7 94.53,61.8 94.53,61.8"/>
      <path id="path240" style="fill:#163560;fill-opacity:1;fill-rule:nonzero;stroke:none" d="m 11152.1,6138.1 -202.1,364.7 -437.2,-1220.2 257.9,-276.9 381.4,1132.4"/>
      <path id="path242" style="fill:#1c468a;fill-opacity:1;fill-rule:nonzero;stroke:none" d="m 10096.8,5924.5 -406.49,-1161.2 1080.39,242.4 381.4,1132.4 -1055.3,-213.6"/>
      <path id="path244" style="fill:#efdece;fill-opacity:1;fill-rule:nonzero;stroke:none" d="m 9711.85,4821.9 -18.93,33.1 384.58,1098.9 19.3,-29.4 -384.95,-1102.6"/>
      <path id="path246" style="fill:#fcecdb;fill-opacity:1;fill-rule:nonzero;stroke:none" d="m 10077.5,5953.9 1024.3,199.3 50.3,-15.1 -1055.3,-213.6 -19.3,29.4"/>
      <path id="path248" style="fill:#efdece;fill-opacity:1;fill-rule:nonzero;stroke:none" d="m 11152.1,6138.1 -218.5,346.9 -139.4,-391.7 307.6,59.9 50.3,-15.1"/>
      <path id="path250" style="fill:#ffb27d;fill-opacity:1;fill-rule:nonzero;stroke:none" d="m 10408.7,5756.3 c -35.1,6.8 -110.5,35.2 -186.8,56.2 22.8,17.7 48.1,39.4 55.2,61.7 13.6,43 22.7,56.9 -22.7,43.3 -45.4,-13.7 -204.2,-86.5 -204.2,-86.5 l 0.4,-0.2 c -90.2,-26.3 -173.33,-153.9 -173.33,-153.9 0,0 -1117.03,-392.6 -1251.42,-399.4 -207.9,-10.4 -1591.66,499.2 -1591.66,499.2 -326.56,-72.1 -253.3,-473.4 -140.93,-544.6 112.37,-71.2 1108.08,-433.4 1698.18,-440.2 298.89,-3.5 1386.1,695.3 1386.1,695.3 0,0 127.06,58.1 226.96,39.9 99.8,-18.1 331.3,0 381.2,81.7 49.9,81.7 -118,136.2 -177,147.5"/>
      <path id="path252" style="fill:#f9ddbf;fill-opacity:1;fill-rule:nonzero;stroke:none" d="m 7747.11,5525.4 c 0,0 -123.76,-391.8 -548.79,-481 0,0 -701.9,216.3 -352.42,694.4 0,0 345.54,256.8 901.21,-213.4"/>
      <path id="path254" style="fill:#ffb27d;fill-opacity:1;fill-rule:nonzero;stroke:none" d="m 11134,5726.8 h -0.1 c 0.3,10.8 -0.8,21.5 -3.7,31.8 0,0 -100.2,158.4 -133,164.9 -99.8,19.7 -99.8,-111.8 -78.6,-196.7 14.7,-59 52.2,-115.8 82.6,-146.4 v 0 l -4,-123.9 c 168.8,92.7 136.8,270.3 136.8,270.3"/>
      <path id="path256" style="fill:#ebf3fa;fill-opacity:1;fill-rule:nonzero;stroke:none" d="m 5269.61,7794.9 c 39.91,987.5 -787.81,1426.2 -1634.13,1426.2 -846.33,0 -1767.34,-219.3 -1847.14,-1532.4 -51.33,-844.8 399,-1364.6 1695.75,-1364.6 437.34,0 777.23,69 1037.57,192 l 648.21,-576 -318.54,796.2 c 282.18,262.4 401.07,632.4 418.28,1058.6"/>
      <path id="path258" style="fill:#91b5f8;fill-opacity:1;fill-rule:nonzero;stroke:none" d="m 2992.46,8125 v -230.6 h 150.88 V 8125 h 61.46 v -538 h -61.46 v 251.5 H 2992.46 V 7587 H 2931 v 538 h 61.46"/>
      <path id="path260" style="fill:#91b5f8;fill-opacity:1;fill-rule:nonzero;stroke:none" d="m 3457.08,7820.1 c 0.8,76.6 -27.94,111 -57.48,111 -40.71,0 -60.66,-58.3 -63.06,-111 z m -121.33,-45.5 c 0,-118.9 47.09,-143.7 91,-143.7 27.14,0 48.69,6.4 63.86,14.4 l 10.38,-44.7 c -21.56,-11.2 -54.28,-18.4 -85.41,-18.4 -92.61,0 -140.5,75.9 -140.5,194 0,124.5 53.48,202.8 130.92,202.8 78.22,0 110.15,-83.1 110.15,-169.3 0,-15.1 -0.79,-25.5 -1.59,-35.1 h -178.81"/>
      <path id="path262" style="fill:#91b5f8;fill-opacity:1;fill-rule:nonzero;stroke:none" d="m 3582.42,8139.4 h 61.46 V 7587 h -61.46 v 552.4"/>
      <path id="path264" style="fill:#91b5f8;fill-opacity:1;fill-rule:nonzero;stroke:none" d="m 3734.89,8139.4 h 61.46 V 7587 h -61.46 v 552.4"/>
      <path id="path266" style="fill:#91b5f8;fill-opacity:1;fill-rule:nonzero;stroke:none" d="m 3932.07,7780.2 c 0,-63.9 11.18,-150.9 67.06,-150.9 52.69,0 63.86,90.2 63.86,150.9 0,59.1 -11.17,150.1 -65.46,150.1 -55.08,0 -65.46,-91 -65.46,-150.1 z m 192.38,0 c 0,-149.3 -68.65,-199.6 -128.51,-199.6 -69.46,0 -125.33,63.1 -125.33,198.8 0,140.5 63.06,199.6 129.31,199.6 69.46,0 124.53,-64.7 124.53,-198.8"/>
      <g transform="scale(1.36555)" id="g268">
        <path id="path270" style="fill:#91b5f8;fill-opacity:1;fill-rule:nonzero;stroke:none" d="m 16273.3,7878.56 c 26.7,661.14 -527.4,954.86 -1094,954.86 -566.7,0 -1183.2,-146.81 -1236.7,-1025.93 -34.3,-565.58 267.2,-913.58 1135.3,-913.58 292.8,0 520.3,46.21 694.6,128.6 l 434,-385.63 -213.3,532.97 c 189,175.66 268.6,423.42 280.1,708.71"/>
      </g>
      <g transform="scale(1.2302)" id="g272">
        <path id="path274" style="fill:#ffffff;fill-opacity:1;fill-rule:nonzero;stroke:none" d="m 16162.8,8541.76 c 4.9,-1.11 12,-2.2 21.4,-2.2 43.3,0 71.9,25.8 71.9,73.56 0,51.04 -35.2,75.19 -74.7,75.74 h -18.6 z m 0,179.49 h 19.2 c 34.5,0 64.2,26.35 64.2,65.32 0,34.03 -15.9,60.38 -61,60.38 -9.8,0 -17.5,-1.1 -22.4,-2.74 z m -41.8,151.5 c 17.6,4.39 37.9,7.13 61.5,7.13 33.5,0 62.1,-7.13 81.8,-25.8 16,-14.81 24.2,-36.77 24.2,-63.12 0,-37.87 -20.9,-67.51 -57.1,-81.79 v -1.64 c 42.8,-11.53 68.6,-46.11 68.6,-94.41 0,-30.74 -9.9,-55.44 -26.3,-73.56 -20.9,-23.6 -55.5,-33.49 -97.7,-33.49 -27,0 -43.5,1.66 -55,3.85 v 362.83"/>
      </g>
      <g transform="scale(1.24627)" id="g276">
        <path id="path278" style="fill:#ffffff;fill-opacity:1;fill-rule:nonzero;stroke:none" d="m 16169.4,8529.66 c 0,-43.34 7.6,-102.4 45.5,-102.4 35.7,0 43.4,61.22 43.4,102.4 0,40.09 -7.7,101.86 -44.5,101.86 -37.4,0 -44.4,-61.77 -44.4,-101.86 z m 130.6,0 c 0,-101.32 -46.6,-135.45 -87.2,-135.45 -47.2,0 -85.1,42.8 -85.1,134.91 0,95.36 42.8,135.46 87.7,135.46 47.2,0 84.6,-43.89 84.6,-134.92"/>
      </g>
      <g transform="scale(1.26214)" id="g280">
        <path id="path282" style="fill:#ffffff;fill-opacity:1;fill-rule:nonzero;stroke:none" d="m 16141.1,8485.04 c 0,30.49 -1.6,46.01 -2.1,66.88 h 35.8 l 2.2,-31.57 h 1.1 c 11.1,20.87 32.1,35.31 59.3,35.31 35.9,0 62.6,-26.21 62.6,-88.81 v -173.88 h -41.2 v 166.39 c 0,31.03 -5.9,61.53 -35.8,61.53 -17.1,0 -33.8,-14.46 -38.5,-41.73 -1.7,-6.43 -2.2,-14.45 -2.2,-23.54 v -162.65 h -41.2 v 192.07"/>
      </g>
      <g transform="scale(1.27034)" id="g284">
        <path id="path286" style="fill:#ffffff;fill-opacity:1;fill-rule:nonzero;stroke:none" d="m 16300,8563.1 c 0,-15.95 -9.6,-26.58 -24.5,-26.58 -13.8,0 -23.9,10.63 -23.9,26.58 0,15.95 10.6,26.58 24.5,26.58 14.3,0 23.9,-10.63 23.9,-26.58 z m -91.5,-397.61 c 11.8,3.2 26.1,7.45 34.6,20.2 9,13.82 12.2,32.96 12.2,81.87 v 229.1 h 40.9 v -240.8 c 0,-54.21 -7.9,-79.2 -26,-98.34 -15.4,-15.94 -40.4,-23.92 -56.4,-24.44 l -5.3,32.41"/>
      </g>
      <g transform="scale(1.28671)" id="g288">
        <path id="path290" style="fill:#ffffff;fill-opacity:1;fill-rule:nonzero;stroke:none" d="m 16173.5,8261.61 c 0,-41.98 7.4,-99.18 44.1,-99.18 34.6,0 42,59.3 42,99.18 0,38.83 -7.4,98.66 -43.1,98.66 -36.2,0 -43,-59.83 -43,-98.66 z m 126.5,0 c 0,-98.13 -45.2,-131.2 -84.5,-131.2 -45.7,0 -82.4,41.46 -82.4,130.68 0,92.36 41.5,131.2 85,131.2 45.7,0 81.9,-42.51 81.9,-130.68"/>
      </g>
      <g transform="scale(1.30245)" id="g292">
        <path id="path294" style="fill:#ffffff;fill-opacity:1;fill-rule:nonzero;stroke:none" d="m 16297.9,8104.73 c 0,-27.49 1.6,-49.78 2.1,-68.44 h -34.8 l -3.1,26.44 h -1 c -7.2,-12.44 -26.4,-30.59 -53.4,-30.59 -43.5,0 -61.2,34.22 -61.2,96.44 v 158.64 h 39.9 v -152.94 c 0,-39.41 6.3,-68.44 33.7,-68.44 23.4,0 33.8,21.78 35.8,33.18 1.6,6.74 2.1,14.52 2.1,22.82 v 165.38 h 39.9 v -182.49"/>
      </g>
      <g transform="scale(1.31455)" id="g296">
        <path id="path298" style="fill:#ffffff;fill-opacity:1;fill-rule:nonzero;stroke:none" d="m 16202.9,8146.74 c 0,21.06 -1.6,45.72 -2,64.22 h 35.4 l 2,-39.56 h 1.1 c 8.2,23.63 29.3,43.15 52.4,43.15 3,0 5.6,0 8.2,-0.51 v -40.08 c -2.6,0 -5.2,0 -8.2,0 -25.2,0 -43.7,-23.11 -47.8,-51.36 -1.1,-6.68 -1.6,-14.39 -1.6,-22.6 v -137.67 h -39.5 v 184.41"/>
      </g>
      <g transform="scale(1.43377)" id="g300">
        <path id="path302" style="fill:#233862;fill-opacity:1;fill-rule:nonzero;stroke:none" d="m 15331.1,4181.43 c 128,-226.53 290.5,-314.83 290.5,-314.83 l 678.4,-4.75 c 0,0 -1066.6,492.41 -968.9,319.58"/>
      </g>
      <g transform="scale(1.39501)" id="g304">
        <path id="path306" style="fill:#ffb27d;fill-opacity:1;fill-rule:nonzero;stroke:none" d="m 16279.9,2499.48 c 17.9,-20.93 20.1,-44.23 10.9,-69.04 l -0.1,-0.35 c -17,-45.81 -72.3,-96.78 -136.5,-147.53 -8.2,-6.52 -15.5,-12.47 -21.8,-17.99 -1.7,-1.44 -3.4,-2.87 -4.9,-4.3 -1.3,-1.15 -2.6,-2.3 -3.8,-3.37 -59.9,-54.48 -37.6,-67.17 -145.3,-177.78 -122.8,-125.95 -206.8,-127.67 -230.6,-115.91 -20.1,9.96 21.4,76.99 67.5,152.26 2.2,3.65 4.3,7.31 6.6,10.96 6.2,10.04 12.2,20.22 18.3,30.25 54,90.61 40.6,133.41 28.9,268.96 -9.5,110.11 -166.9,615.98 -166.9,615.98 l 233.9,38.64 c 0,0 67.6,-402.43 144.6,-464.94 41.2,-33.26 87.7,-33.98 127.3,-58.71 2.8,-1.72 5.5,-3.51 8.3,-5.31 22.5,-15.19 45.5,-30.82 63.6,-51.82"/>
      </g>
      <g transform="scale(1.39501)" id="g308">
        <path id="path310" style="fill:#233862;fill-opacity:1;fill-rule:nonzero;stroke:none" d="m 16279.9,2499.48 c 17.9,-20.93 20.1,-44.23 10.9,-69.04 l -0.1,-0.35 c -20.7,-45.74 -74.6,-96.42 -136.7,-147.1 -8.1,-6.59 -15.3,-12.69 -21.6,-18.42 -1.7,-1.44 -3.4,-2.87 -4.9,-4.3 -1.3,-1.15 -2.6,-2.3 -3.8,-3.37 -59.9,-54.48 -37.6,-67.17 -145.3,-177.78 -122.8,-125.95 -206.8,-127.67 -230.6,-115.91 -20.1,9.96 21.4,76.99 67.5,152.26 23.8,8.53 134.3,52.54 218.4,158.56 74,93.19 123.9,213.19 174.3,282.58 2.8,-1.72 5.5,-3.51 8.3,-5.31 22.5,-15.19 45.5,-30.82 63.6,-51.82"/>
      </g>
      <g transform="scale(1.24844)" id="g312">
        <path id="path314" style="fill:#ffb27d;fill-opacity:1;fill-rule:nonzero;stroke:none" d="m 16087.3,2970.83 c -16.6,-80.51 -131.4,-66.25 -259.5,-33.97 -128.1,32.28 -97.9,-5.21 -280.3,16.26 -182.5,21.55 -237.4,90.03 -242.7,117.19 -4.8,24.11 85.4,32.04 182.3,42.45 12.2,1.28 24.4,2.72 36.7,4.17 109.4,12.89 189.9,82.9 289.5,140.09 94.5,54.15 236.4,276.67 236.4,276.67 l 250.3,-21.55 c 0,0 -132.9,-198.73 -184.3,-285.16 -30.3,-50.86 -29.2,-118.39 -25.8,-170.53 1.8,-28.35 3.4,-57.27 -2.6,-85.62"/>
      </g>
      <g transform="scale(1.23261)" id="g316">
        <path id="path318" style="fill:#233862;fill-opacity:1;fill-rule:nonzero;stroke:none" d="m 16031.1,2974.59 c -129.7,32.69 -99.1,-5.27 -283.9,16.47 -184.8,21.82 -240.4,91.19 -245.8,118.69 -4.9,24.42 86.5,32.45 184.6,43 l 1,-1.87 c 0,0 110.3,-79.42 264.3,-84.21 125.4,-3.97 258.6,31.07 345.3,29.04 1.8,-28.71 3.4,-58 -2.6,-86.72 -16.9,-81.54 -133.1,-67.1 -262.9,-34.4"/>
      </g>
      <g transform="scale(1.37161)" id="g320">
        <path id="path322" style="fill:#233862;fill-opacity:1;fill-rule:nonzero;stroke:none" d="m 15526.7,4155.54 209,-574.94 273,-750.72 c 0,0 75.4,-7.8 147.9,12.47 66.7,18.73 143.4,68.53 143.4,68.53 0,0 -71.6,804.53 -212.4,1267.05 -36.1,118.76 -76.8,214.85 -122.2,269.1 -221.5,265.6 -438.7,-291.49 -438.7,-291.49"/>
      </g>
      <g transform="scale(1.50766)" id="g324">
        <path id="path326" style="fill:#2b478b;fill-opacity:1;fill-rule:nonzero;stroke:none" d="m 14328.5,4607.73 c 127.3,40.06 489.2,-15.06 852.6,-88.88 l 77.2,125.09 786.4,55.85 c 0,0 255.3,-576.98 110.8,-942.52 -21.3,-53.72 -73.1,-76.08 -143.8,-76.74 l -0.1,-0.06 c 0,0 -469.1,-8.16 -621.1,-7.1 -390.9,2.79 -825.4,274.53 -881.8,286.27 -92.2,19.1 -130.5,-165.42 -224.3,-358.83 -93.7,-193.42 -874.6,-853.18 -874.6,-853.18 0,0 -119.3,-0.4 -168.4,18.44 -52.9,20.29 -72.1,46.23 -72.1,46.23 0,0 872.1,1705.02 1159.2,1795.43"/>
      </g>
      <g transform="scale(1.54943)" id="g328">
        <path id="path330" style="fill:#233862;fill-opacity:1;fill-rule:nonzero;stroke:none" d="m 14858.8,5572.05 c 271.3,-151.86 821.7,-466.62 824.6,-464.69 0,0 202.5,-77.96 318.3,-2.26 192.9,126.18 298.3,468.69 -50.8,766.54 -174.1,148.58 -298.3,185.3 -315.5,420.68 -9.4,127.66 -180.9,550.04 -471,513.14 -24.2,-3.09 -48.6,-5.25 -73,-4.29 -33.9,1.33 -89.8,-3.21 -147.4,-36.94 -164.7,-96.5 -493.1,-1131.25 -85.2,-1192.18"/>
      </g>
      <g transform="scale(1.46988)" id="g332">
        <path id="path334" style="fill:#ffb27d;fill-opacity:1;fill-rule:nonzero;stroke:none" d="m 15904.6,6006.49 c -1.2,-0.82 141,-50.48 236.5,-8.91 90,38.98 158.9,186 157.6,186.07 -40.8,2.17 -85.3,38.16 -118.1,272.4 l -17.4,-6.12 -292.8,-103.01 c 0,0 20.5,-93.88 33.6,-183.14 10.9,-74.97 16.6,-146.82 0.6,-157.29"/>
      </g>
      <g transform="scale(1.45754)" id="g336">
        <path id="path338" style="fill:#ed975d;fill-opacity:1;fill-rule:nonzero;stroke:none" d="m 16004.8,6400.65 c 0,0 12.5,-66.35 30,-161.16 169.4,29.29 240.7,173.71 265.2,265.03 l -295.2,-103.87"/>
      </g>
      <g transform="scale(1.46322)" id="g340">
        <path id="path342" style="fill:#ffb27d;fill-opacity:1;fill-rule:nonzero;stroke:none" d="m 15898.3,6282.65 c 0,0 401.7,51.05 366,300.71 -35.6,249.72 -7.8,424.43 -265.7,402.39 -258,-22.02 -294.1,-124.39 -302.5,-210.63 -8.4,-86.25 96.7,-499.31 202.2,-492.47"/>
      </g>
      <g transform="scale(1.47066)" id="g344">
        <path id="path346" style="fill:#233862;fill-opacity:1;fill-rule:nonzero;stroke:none" d="m 15632.3,6876.79 c 0,0 254,-222.07 427.7,-241.04 173.8,-18.98 240,36.37 240,36.37 0,0 -101.9,85.82 -162.6,223.54 -17.9,40.6 -56.1,68.65 -100.3,72.77 -124.1,11.6 -359.3,18.15 -404.8,-91.64"/>
      </g>
      <g transform="scale(1.42484)" id="g348">
        <path id="path350" style="fill:#233862;fill-opacity:1;fill-rule:nonzero;stroke:none" d="m 16300,7117.12 c 0,0 -88.9,-84.72 -117.1,-147.85 -27.3,-60.85 -36.4,-206.9 -15.4,-265.08 0,0 -135.7,268.38 -56.9,397.74 83.6,137.17 189.4,15.19 189.4,15.19"/>
      </g>
      <g transform="scale(1.504)" id="g352">
        <path id="path354" style="fill:#f9ddbf;fill-opacity:1;fill-rule:nonzero;stroke:none" d="m 15211,5297.41 c 6.2,-790.43 -1.2,-625.27 84.7,-700.87 20.7,-18.21 79.2,-29.39 156.2,-34.97 242.2,-17.82 668.6,19.08 685.1,63.76 57,154.59 17.9,203 66.2,439.96 5,25.2 11.2,52.46 18.5,82.12 40,162.7 78.3,217.88 -57.9,480.65 -123.4,238.03 -252,431.38 -263.7,424.53 -331.5,-193.61 -356.9,-28.72 -356.9,-28.72 0,0 -335.4,-340.96 -332.2,-726.46"/>
      </g>
      <g transform="scale(1.37161)" id="g356">
        <path id="path358" style="fill:#2b478b;fill-opacity:1;fill-rule:nonzero;stroke:none" d="m 15735.7,3580.6 273,-750.72 c 0,0 75.4,-7.8 147.9,12.47 66.7,18.73 143.4,68.53 143.4,68.53 0,0 -71.6,804.53 -212.4,1267.05 l -351.9,-597.33"/>
      </g>
      <g transform="scale(1.43417)" id="g360">
        <path id="path362" style="fill:#f9ddbf;fill-opacity:1;fill-rule:nonzero;stroke:none" d="m 16300,6317.26 c 0,0 -356.6,-57.87 -399.5,-210.92 -42.9,-153.12 -295.4,-1052.88 -295.4,-1052.88 0,0 180.8,-33.82 265,49.23 84.3,83.04 296.6,774.04 296.6,774.04 l 133.3,440.53"/>
      </g>
      <g transform="scale(1.49507)" id="g364">
        <path id="path366" style="fill:#f2ccaa;fill-opacity:1;fill-rule:nonzero;stroke:none" d="m 15544.2,4588.82 c 243.7,-17.92 672.6,19.2 689.2,64.15 57.4,155.51 18,204.2 66.6,442.59 l -115.2,331.95 c 0,0 16.7,-368.88 -92.7,-465.12 -109.3,-96.19 -446.5,-184.08 -499.9,-264.74 -25.8,-38.66 -42.9,-77.59 -48,-108.83"/>
      </g>
      <g transform="scale(1.45147)" id="g368">
        <path id="path370" style="fill:#ffb27d;fill-opacity:1;fill-rule:nonzero;stroke:none" d="m 16300,4884.35 c 0,0 -247.4,56.91 -287.5,35.21 -40.2,-21.7 -138.4,-101.07 -150.8,-128.91 -12.5,-27.76 89.1,20.53 122.1,29.15 21.4,5.58 77.3,-14.33 105.1,-23.77 116.6,-39.83 188.4,-20.26 188.4,-20.26 l 22.7,108.58"/>
      </g>
      <g transform="scale(1.5492)" id="g372">
        <path id="path374" style="fill:#f9ddbf;fill-opacity:1;fill-rule:nonzero;stroke:none" d="m 15436.3,5876.18 c 0,0 311.5,-21.43 418.4,-172.67 150.4,-212.88 445.3,-1117.8 271.8,-1236.95 -195.4,-134.27 -885.3,-29.24 -885.3,-29.24 0,0 -22.2,107.53 10.1,159.3 32.4,51.71 552.6,132.01 576.7,155.83 24.2,23.75 -296.5,469.72 -295.9,541.63 0.5,71.97 -95.8,582.1 -95.8,582.1"/>
      </g>
      <g transform="scale(1.42476)" id="g376">
        <path id="path378" style="fill:#ffb27d;fill-opacity:1;fill-rule:nonzero;stroke:none" d="m 16300,4941.6 c 0,0 -53.4,-67.8 -70.7,-75.87 -17.5,-8 -28.7,-5.9 -28.7,-5.9 l 36.2,63.87 63.2,17.9"/>
      </g>
      <g transform="scale(1.42587)" id="g380">
        <path id="path382" style="fill:#ffb27d;fill-opacity:1;fill-rule:nonzero;stroke:none" d="m 16300,5007.89 -154.2,-73.57 c 0,0 6.5,-10.73 25.4,-9.96 18.9,0.7 66.8,17.81 66.8,17.81 l 62,65.72"/>
      </g>
      <g transform="scale(1.42145)" id="g384">
        <path id="path386" style="fill:#f99746;fill-opacity:1;fill-rule:nonzero;stroke:none" d="m 16300,4766.76 -1219,8.58 -360.3,914.49 1217.1,-8.58 362.2,-914.49"/>
      </g>
      <g transform="scale(1.4543)" id="g388">
        <path id="path390" style="fill:#ed7d2b;fill-opacity:1;fill-rule:nonzero;stroke:none" d="m 14726.5,4702.26 1573.5,-11.07 -0.3,-34.73 -1559.4,11.01 -13.8,34.79"/>
      </g>
      <g transform="scale(1.35316)" id="g392">
        <path id="path394" style="fill:#ffffff;fill-opacity:1;fill-rule:nonzero;stroke:none" d="m 16168.7,5493 c -9.5,33.77 10.2,60.89 43.9,60.67 33.7,-0.22 68.6,-27.79 78,-61.49 9.4,-33.77 -10.3,-60.96 -43.9,-60.67 -33.7,0.22 -68.6,27.79 -78,61.49"/>
      </g>
      <g transform="scale(1.09838)" id="g396">
        <path id="path398" style="fill:#c65447;fill-opacity:1;fill-rule:nonzero;stroke:none" d="m 16300,2443.78 -0.2,-952.95 -4793.3,1 0.2,952.86 4793.3,-0.91"/>
      </g>
      <path id="path400" style="fill:#fcecdb;fill-opacity:1;fill-rule:nonzero;stroke:none" d="m 12638.4,1638.5 -773.8,331 -450,192.6 460.6,196.8 763.5,326.3 c 0,0 101.9,-254.8 103.4,-494.5 2.4,-376.1 -103.7,-552.2 -103.7,-552.2"/>
      <g transform="scale(1.13593)" id="g402">
        <path id="path404" style="fill:#fcecdb;fill-opacity:1;fill-rule:nonzero;stroke:none" d="m 16299.9,2057.25 v -291.3 c -0.1,-179.23 -145.3,-324.4 -324.5,-324.4 H 15761 l 0.1,921.45 233.2,-0.09 c 168.9,0 305.7,-136.9 305.6,-305.66"/>
      </g>
      <path id="path406" style="fill:#2b478b;fill-opacity:1;fill-rule:nonzero;stroke:none" d="m 11875.2,2358.9 c 19.2,-105.7 35.8,-267.7 -10.6,-389.4 l -450,192.6 460.6,196.8"/>
      <path id="path408" style="fill:#f99746;fill-opacity:1;fill-rule:nonzero;stroke:none" d="m 13770.4,8134.8 c 0,0 94.3,-409.2 369.2,-409.2 235.7,0 558.9,532.7 558.9,532.7 l -928.1,-123.5"/>
      <g transform="scale(1.03844)" id="g410">
        <path id="path412" style="fill:#2b478b;fill-opacity:1;fill-rule:nonzero;stroke:none" d="m 16300,2013.51 -170.1,-117 c 0,0 -817.9,871.89 -1015.4,1707.66 -35.2,149.17 -49.4,296.31 -34.4,435.95 0,0 -12,37.84 -32.8,104.77 -0.9,2.98 -1.9,5.97 -2.8,8.95 -9.2,29.38 -20.1,63.95 -32.3,103.04 -39.7,126.25 -94.2,299.11 -156.2,495.85 -143,452.79 -469.9,1473.85 -609.7,1898.62 l 1004.2,363.34 c 0,0 114.2,-260.11 278.1,-967.03 25.2,-92.26 50.4,-194.34 74.1,-305.46 26.8,-125.96 51.7,-263.67 72.5,-412.45 35.3,-251.92 58.8,-535.42 60.2,-846.47 0.6,-126.44 -2.5,-257.69 -10,-392.99 -5.5,-99.19 9.2,-231.5 37,-381.92 126.4,-687.77 537.6,-1694.86 537.6,-1694.86"/>
      </g>
      <g transform="scale(1.07252)" id="g414">
        <path id="path416" style="fill:#233862;fill-opacity:1;fill-rule:nonzero;stroke:none" d="m 16300,1542.72 h -786.1 c 0,0 -29.4,125.31 22.2,210.62 45.7,75.53 28.3,118.51 -5.6,180.98 35.6,-14.55 81.7,-27.88 132.4,-24.89 39.2,2.23 80.6,19.95 116.9,41.11 33.8,-38.6 178.7,-202.79 224,-235.33 51.4,-36.92 280.3,-23.77 296.2,-172.49"/>
      </g>
      <path id="path418" style="fill:#233862;fill-opacity:1;fill-rule:nonzero;stroke:none" d="m 16277.7,5534.6 -655,-1221.1 c -9.5,30.5 -20.8,66.4 -33.5,107 -41.2,131.1 -97.8,310.6 -162.2,514.9 -148.5,470.2 -488,1530.5 -633.1,1971.6 l 1042.8,377.3 c 0,0 118.5,-270.1 288.7,-1004.2 26.2,-95.8 52.4,-201.8 77,-317.2 27.8,-130.8 53.7,-273.8 75.3,-428.3"/>
      <path id="path420" style="fill:#233862;fill-opacity:1;fill-rule:nonzero;stroke:none" d="m 14776.9,1918.5 c 0,0 -58.3,-143.2 -3.4,-263.9 h 458.6 c 0,0 9.5,108.8 -156.9,235.1 -126,95.6 -298.3,28.8 -298.3,28.8"/>
      <path id="path422" style="fill:#2c3a64;fill-opacity:1;fill-rule:nonzero;stroke:none" d="m 15276,11240.1 c 0.3,22.9 12,269 386,290.9 0,0 -183.5,-26.4 -213.4,-108.1 0,0 122.9,103 225.7,73.3 102.9,-29.7 167.1,-207 169.2,-265.8 2,-58.8 -50.2,-249.8 -114.5,-267.5 -24.4,-6.7 -52.7,-5.7 -78.5,-2 17.9,-26.5 35.5,-55.7 52.4,-88.5 156.8,-303 21.6,-659.9 -105.7,-629.8 -81.6,19.3 -131.2,-122.2 -131.2,-122.2 l -784.8,674.9 c 0,0 275,605.7 594.8,444.8"/>
      <path id="path424" style="fill:#ffb27d;fill-opacity:1;fill-rule:nonzero;stroke:none" d="m 14782.7,9189.5 c 87,-60.4 196.1,-110.2 333,-141.8 513.5,-118.6 710.2,315.3 784.1,613.2 -70,40 -135.9,48.9 -173.9,53.4 -37.1,4.4 -76.2,7.3 -108.5,8.9 -57.6,44.1 -143.6,224.9 -162.5,505.5 l -24.2,-6.5 -404.6,-110.8 c 0,0 18.5,-128.6 27.6,-250.2 7,-95.1 8.1,-186 -9.9,-208.3 -31.6,-6.8 -50.5,-11.3 -50.5,-11.3 l -0.2,-0.4 c -5.5,-8.9 -122.8,-201.9 -210.4,-451.7"/>
      <path id="path426" style="fill:#ed985f;fill-opacity:1;fill-rule:nonzero;stroke:none" d="m 15026.1,10111.4 c 0,0 18.6,-128.5 27.6,-250.2 229.2,22.9 335.6,241.2 377,360.9 l -404.6,-110.7"/>
      <path id="path428" style="fill:#ffb27d;fill-opacity:1;fill-rule:nonzero;stroke:none" d="m 15021.4,9918.3 c 0,0 527.8,135.7 438.2,463 -89.5,327.4 -81.7,565.4 -422.4,492.7 -340.8,-72.8 -371.8,-215.5 -368.5,-332.1 3.3,-116.5 213.1,-650.4 352.7,-623.6"/>
      <path id="path430" style="fill:#2c3a64;fill-opacity:1;fill-rule:nonzero;stroke:none" d="m 14634.3,10728.2 c 54.2,120.7 121.5,116 164,95.8 243.8,236.8 493,54.2 493,54.2 99.6,-225.2 305.9,-313.2 305.9,-313.2 0,0 -79.5,-85.5 -315.9,-89.3 -72.2,-1.2 -145.5,30.2 -212.7,74.3 130.5,-125.3 281.7,-199.8 281.7,-199.8 -297.2,49.5 -503.8,387.2 -525,423.1 -24.1,-37.6 -70.2,-117.6 -72.6,-184.2 -3.3,-90.5 32,-265.3 -19.6,-273.2 0,0 -180,231.2 -98.8,412.3"/>
      <path id="path432" style="fill:#ffb27d;fill-opacity:1;fill-rule:nonzero;stroke:none" d="m 14869.6,9668.9 c 0,0 886.4,215.2 1271.8,-102.7 l -192.6,-2686.4 -1733.6,418.9 c 0,0 48.8,169.9 381.2,621.9 332.4,452.1 187.8,1115.1 273.2,1748.3"/>
      <path id="path434" style="fill:#2b478b;fill-opacity:1;fill-rule:nonzero;stroke:none" d="m 15386.3,7178.9 c 0,0 -1,-9.1 -2.8,-26.5 -0.8,-7.4 -1.8,-16.5 -2.9,-27 -7.5,-69.6 -21.6,-203.2 -39.8,-376.9 -47.6,-455.6 -122.2,-1187.3 -173.1,-1764.9 -39.8,-451.6 -65.1,-809 -51.4,-866.4 41,-172.7 0,-2237.1 0,-2237.1 -147.4,-70.7 -370.8,0 -370.8,0 0,0 -392.4,1860.3 -337.5,2118.9 54.9,258.6 -36.7,479.3 -36.7,479.3 -304.8,1419.1 -271.4,2205.7 -210.9,2582.2 17.6,109.5 37.5,184.3 52.1,229.9 12.4,38.8 20.9,56.5 20.9,56.5 672.2,180.9 1152.9,-168 1152.9,-168"/>
      <g transform="scale(1.00104)" id="g436">
        <path id="path438" style="fill:#f99746;fill-opacity:1;fill-rule:nonzero;stroke:none" d="m 16244,8790.83 c -42.8,-322.86 -213.8,-717.95 -274.9,-930.53 0,0 102.1,-738.33 4.6,-941.02 -11,-23.07 -24.7,-39.26 -41.5,-46.55 -361.1,-157.33 -1767.4,-4.59 -1826.7,449.03 -21.6,164.83 535.6,744.63 568.1,814.95 13.5,29.17 27.8,123.48 -37.6,318.97 -92.6,-285.5 -603.6,-203.39 -603.6,-203.39 59.9,102.6 209.4,812.76 376.3,1133.32 125.4,240.95 460.4,275.81 460.4,275.81 0,0 139.4,-221.07 476.6,-189.7 337.2,31.37 398.9,237.75 398.9,237.75 0,0 299,-39.75 391.2,-114.08 16,-12.88 164.2,-381.6 108.2,-804.56"/>
      </g>
      <path id="path440" style="fill:#ed7d2b;fill-opacity:1;fill-rule:nonzero;stroke:none" d="m 15985.8,7868.5 c 0,0 102.2,-739.1 4.6,-942 -263.3,132.2 -470.9,489.8 -423,888.2 35.4,294.4 88.1,361.6 245.6,530.1 115.8,123.8 383.4,130.8 362.4,71.9 -62.4,-175.4 -157.3,-435.8 -189.6,-548.2"/>
      <path id="path442" style="fill:#1c468a;fill-opacity:1;fill-rule:nonzero;stroke:none" d="m 14886.4,8742.4 603.6,-968.3 h -1027 l -575.1,947.4 998.5,20.9"/>
      <path id="path444" style="fill:#efdece;fill-opacity:1;fill-rule:nonzero;stroke:none" d="m 15458.6,7822.7 10.4,33.8 -571.1,916.4 -11.5,-30.5 572.2,-919.7"/>
      <path id="path446" style="fill:#fcecdb;fill-opacity:1;fill-rule:nonzero;stroke:none" d="m 14897.9,8772.9 -967.5,-27.5 -42.5,-23.9 998.5,20.9 11.5,30.5"/>
      <path id="path448" style="fill:#163560;fill-opacity:1;fill-rule:nonzero;stroke:none" d="m 13887.9,8721.5 -542.8,293.8 632.7,-993.6 485.2,-247.6 -575.1,947.4"/>
      <g transform="scale(1.02823)" id="g450">
        <path id="path452" style="fill:#ffb27d;fill-opacity:1;fill-rule:nonzero;stroke:none" d="m 16300,7822.11 c -56.5,-25.87 -201.6,-196.75 -253.4,-214.16 -233,-77.9 -1224.2,129.45 -1224.2,129.45 l 30.7,173.6 c 0,0 972.9,-25.78 1079.9,2.82 20.1,5.44 125.2,169.8 165.7,193.44 l 201.3,-285.15"/>
      </g>
      <path id="path454" style="fill:#ffb27d;fill-opacity:1;fill-rule:nonzero;stroke:none" d="m 15272.4,8134.4 c 0,0 -120.6,98.1 -202.1,75.9 -81.5,-22.2 -201.5,-125.3 -246,-149.7 -44.5,-24.4 -165.5,-111.7 -104.2,-164.5 61.3,-52.8 252.2,-7.4 327.9,33 75.6,40.5 192.9,26.7 192.9,26.7 l 31.5,178.6"/>
      <path id="path456" style="fill:#ffb27d;fill-opacity:1;fill-rule:nonzero;stroke:none" d="m 15093.4,8213.5 c 0,0 -146.6,17.5 -186.7,16.7 -40,-0.8 -29.1,-9.6 -7,-40.6 22.1,-31.1 98.4,-43 101.9,-53.9 3.5,-10.8 91.8,77.8 91.8,77.8"/>
      <g transform="scale(1.03215)" id="g458">
        <path id="path460" style="fill:#f99746;fill-opacity:1;fill-rule:nonzero;stroke:none" d="m 15270.1,9416.87 c 0,0 421.3,-49.99 537.2,-230.58 146.6,-228.46 492.7,-1138.02 481.6,-1367.25 0,0 -253.1,-430.66 -1120.7,-361.67 0,0 -90.3,318.84 92.2,424.06 0,0 445.7,79.26 496.9,124.5 l -363.3,660.28 -123.9,750.66"/>
      </g>
      <path id="path462" style="fill:#ffb27d;fill-opacity:1;fill-rule:nonzero;stroke:none" d="m 14027,8367.5 c -13.5,54.8 -132.9,20.6 -173.2,-11 -9.8,-7.6 -20.3,-20.7 -30.6,-35.9 -1.3,9.1 -2.4,17.9 -3,24.7 -2.2,25.8 -32.2,71.9 -39.6,37.4 -7.5,-34.6 -19.7,-179.5 -19.7,-179.5 -1.5,-116.8 73.6,-165 121.8,-127 48.2,38 157.7,236.5 144.3,291.3"/>
      <g transform="scale(1.84176)" id="g464">
        <path id="path466" style="fill:#2e3552;fill-opacity:1;fill-rule:nonzero;stroke:none" d="M 16280.8,847.722 H 1412.31 c -10.53,0 -19.15,8.579 -19.15,19.111 v 12.544 c 0,10.587 8.62,19.167 19.15,19.167 H 16280.8 c 10.6,0 19.2,-8.58 19.2,-19.167 v -12.544 c 0,-10.532 -8.6,-19.111 -19.2,-19.111"/>
      </g>
    </g>
  </g>
</svg>