<?xml version="1.0" encoding="utf-8"?>
<svg viewBox="238.243 606.19 3821.761 1503.397" xmlns="http://www.w3.org/2000/svg">
  <defs>
    <clipPath id="clipPath412" clipPathUnits="userSpaceOnUse">
      <path id="path410" d="m 16439,8432.7 h -5671.1 l -642.3,2321.2 -49.2,177.9 -42,151.8 -98.58,356 h 5589.48 l 108.1,-356 46.1,-151.8 54.2,-177.9 705.3,-2321.2"/>
    </clipPath>
  </defs>
  <g transform="matrix(1.333333, 0, 0, -1.333333, 0, 2666.666748)" id="g10">
    <g transform="scale(0.1)" id="g12">
      <g transform="scale(1.81199)" id="g18">
        <path id="path20" style="fill-opacity: 1; fill-rule: nonzero; stroke: none; fill: rgb(175, 205, 251);" d="m 14656,2324.13 c 0,0 1644,1719.32 278,3580.81 -1212,1651.61 -2625,1538.72 -3661.8,868.48 C 10830.7,6487.95 9232.54,5190.97 8148.98,6871.53 6671.32,9163.39 1874.32,9320.66 2808.23,5794.58 3260.18,4088.2 999.115,4026.17 1930.25,2320.48 l 12725.75,3.65"/>
      </g>
      <path id="path22" style="fill:#ed985f;fill-opacity:1;fill-rule:nonzero;stroke:none" d="m 6738.13,8403.9 c 0,0 -835.93,-364.2 -987.67,-357.6 -151.74,6.6 -1086.75,284.8 -1086.75,284.8 l 23.8,-160.8 c 0,0 721.58,-415 973.85,-438.6 248.36,-23.2 1097.6,222.9 1179.59,274.9 81.99,51.9 135.45,344.7 -102.82,397.3"/>
      <path id="path24" style="fill:#233862;fill-opacity:1;fill-rule:nonzero;stroke:none" d="m 6863.72,9743.7 c 0,0 308.38,58.5 461.97,-53.6 278.22,-203.2 293.16,-903.6 397.43,-1008 104.28,-104.3 355.63,-59.8 378,-599.7 22.38,-539.9 -100.07,-585.1 45.76,-826.1 145.83,-241 -61.69,-482.2 -61.69,-482.2 0,0 84.99,133 48.56,229.1 0,0 -35.38,-212 -170.01,-261.6 -134.65,-49.7 -154.57,-86.1 -176.07,-159 0,0 -1148.63,588.6 -1149.89,1006.1 -1.25,417.4 -226.03,831 -115.65,1011.9 0,0 -49.16,-77.4 -55.19,-163.5 0,0 -66.23,126.9 48.57,245 114.8,118.2 -134.67,362.6 -97.73,645.8 25.35,194.4 161.75,407.3 445.94,415.8"/>
      <path id="path26" style="fill:#ffb27d;fill-opacity:1;fill-rule:nonzero;stroke:none" d="m 6636.53,8006.1 c 73.42,-50.9 165.48,-92.9 281.04,-119.6 433.18,-100.1 599.19,266.1 661.54,517.4 -59.07,33.8 -114.66,41.2 -146.76,45.1 -31.31,3.7 -64.24,6.1 -91.51,7.5 -48.64,37.2 -121.12,189.7 -137.15,426.5 l -20.38,-5.5 -341.4,-93.4 c 0,0 15.64,-108.6 23.3,-211.1 5.93,-80.3 6.86,-157 -8.34,-175.8 -26.65,-5.8 -42.63,-9.5 -42.63,-9.5 l -0.18,-0.4 c -4.58,-7.5 -103.62,-170.4 -177.53,-381.2"/>
      <path id="path28" style="fill:#ed985f;fill-opacity:1;fill-rule:nonzero;stroke:none" d="m 6841.89,8784 c 0,0 15.7,-108.4 23.3,-211.1 193.42,19.4 283.18,203.5 318.13,304.5 L 6841.89,8784"/>
      <path id="path30" style="fill:#ffb27d;fill-opacity:1;fill-rule:nonzero;stroke:none" d="m 6784.14,8682.1 c 0,0 459.1,25.4 438.92,311 -20.17,285.7 25.49,481.3 -268.48,477.2 -293.98,-4.1 -343.17,-117.1 -359.62,-214.1 -16.46,-97 69.24,-573.3 189.18,-574.1"/>
      <path id="path32" style="fill:#233862;fill-opacity:1;fill-rule:nonzero;stroke:none" d="m 6597.2,9416 c 64.72,91 119.64,76 151.5,52.3 240.75,155.8 416.87,-36.3 416.87,-36.3 45.38,-202.8 201.59,-309.6 201.59,-309.6 0,0 -79.87,-57.6 -276.11,-21.9 -59.94,10.9 -115.49,49 -163.79,96.5 87.35,-125.1 200.24,-211.6 200.24,-211.6 -237.79,89.8 -353.17,403.3 -364.81,436.5 -26.19,-27.1 -77.45,-85.7 -90.43,-140.4 -17.65,-74.4 -93.75,-190.7 -137.76,-188.7 0,0 -34.36,186.8 62.7,323.2"/>
      <path id="path34" style="fill:#b5453c;fill-opacity:1;fill-rule:nonzero;stroke:none" d="m 7709.88,7072.7 c 41.46,212 176.63,1058.7 41.46,1331.2 -48.55,97.9 -239.05,106.7 -448.06,98.1 -65.04,-42 -312.87,-200.6 -414.67,-180.8 -1.09,0.2 -3.07,0.7 -5.7,1.3 -47.93,12 -66.03,45.7 -26.04,74.7 0.08,0.1 -103.53,10 -232.08,-14.2 -72.61,-13.7 -268.46,-115 -268.46,-115 0,0 98.63,-178.2 244.06,-239.7 -24.73,-221.2 12.04,-318.8 241.53,-829.7 193.92,-431.9 -26.16,-820.8 -26.16,-820.8 0,0 1141.55,-917.8 1147.91,-450.5 4.77,351.8 -306.78,874.5 -253.79,1145.4"/>
      <path id="path36" style="fill:#dd6d22;fill-opacity:1;fill-rule:nonzero;stroke:none" d="m 6759.17,5379.8 c -62.09,7 -117.98,41 -152.69,93 -5.5,8.2 -11.39,17.1 -17.64,26.5 -129.95,196.7 -180.51,799.2 -472.79,1440.9 -71.19,156.3 -326.74,184.4 -396.42,361 0,0 -171.5,572.5 328.27,589.4 499.78,16.9 1338.49,-1592.9 1351.74,-1761.7 12.83,-163.6 330.42,-858.6 -640.47,-749.1"/>
      <path id="path38" style="fill:#9e332e;fill-opacity:1;fill-rule:nonzero;stroke:none" d="m 4772.75,5393 h 711.35 c 0,0 26.59,113.4 -20.11,190.6 -41.34,68.3 -25.5,107.3 5.12,163.8 -32.23,-13.2 -73.91,-25.2 -119.81,-22.6 -35.44,2 -72.92,18.1 -105.79,37.2 -30.61,-34.9 -161.71,-183.5 -202.67,-212.9 -46.49,-33.4 -253.77,-21.5 -268.09,-156.1"/>
      <path id="path40" style="fill:#9e332e;fill-opacity:1;fill-rule:nonzero;stroke:none" d="m 7634.89,8181.9 c 0,0 92.58,-842.3 -507.85,-1018.8 -600.42,-176.5 -770.87,775 -286.09,843.5 484.79,68.4 793.94,175.3 793.94,175.3"/>
      <path id="path42" style="fill:#ed7d2b;fill-opacity:1;fill-rule:nonzero;stroke:none" d="m 5703.37,7725.1 c -42.83,-321.1 -210.1,-1334.7 -505.16,-1829.2 -95.13,-159.4 239.67,-248.8 241.47,-248.3 44.91,11.8 119.71,83.3 154.2,114.4 239.55,215.9 725.83,827.2 725.83,1317.3 0,239 4.2,695.4 -169.57,811.4 -107.02,71.4 -429.75,-38.1 -446.77,-165.6"/>
      <path id="path44" style="fill:#f99746;fill-opacity:1;fill-rule:nonzero;stroke:none" d="m 7183.34,5393 c 0,0 -26.36,36.7 -72.32,106.3 -54.71,82.9 -115.25,246 -188.7,455 -77.15,219.4 -168.69,489.4 -283.07,770.2 -35.3,86.7 -72.79,174.5 -112.66,262.1 -71.19,156.3 -267.04,134.7 -336.72,311.3 0,0 -271.87,612.3 227.9,629.2 499.78,16.9 1449.47,-1638 1504.05,-1798.2 59.74,-175.5 351.22,-904 -738.48,-735.9"/>
      <path id="path46" style="fill:#b5453c;fill-opacity:1;fill-rule:nonzero;stroke:none" d="m 5294.93,5393 h 711.34 c 0,0 26.6,113.4 -20.1,190.6 -41.35,68.3 -25.5,107.3 5.11,163.8 -32.22,-13.2 -73.91,-25.2 -119.81,-22.6 -35.43,2 -72.92,18.1 -105.78,37.2 -30.62,-34.9 -161.71,-183.5 -202.67,-212.9 -46.49,-33.4 -253.78,-21.5 -268.09,-156.1"/>
      <path id="path48" style="fill:#ed7d2b;fill-opacity:1;fill-rule:nonzero;stroke:none" d="m 6922.32,5954.3 c -77.15,219.4 -168.69,489.4 -283.07,770.2 29.87,212.8 94.31,399 202.67,474.1 0,0 262.87,-814.4 80.4,-1244.3"/>
      <path id="path50" style="fill:#f99746;fill-opacity:1;fill-rule:nonzero;stroke:none" d="m 6118.61,7747.9 c -42.84,-321.2 -103.16,-1357.5 -398.23,-1852 -95.13,-159.4 239.67,-248.8 241.48,-248.3 44.91,11.8 119.71,83.3 154.19,114.4 239.56,215.9 725.84,827.2 725.84,1317.3 0,239 -280.45,676.2 -454.22,792.2 -107.02,71.5 -252.04,3.9 -269.06,-123.6"/>
      <path id="path52" style="fill:#9e332e;fill-opacity:1;fill-rule:nonzero;stroke:none" d="m 4578.78,8744.9 728.49,77.4 c 21.24,2.3 41.32,-10.1 48.92,-30 l 260.64,-684.9 c 11.43,-30 -9.95,-62.4 -42.05,-63.7 l -722.86,-29.2 c -19.64,-0.8 -37.7,10.7 -45.28,28.9 L 4540.37,8680 c -12.14,29.1 7.12,61.6 38.41,64.9"/>
      <path id="path54" style="fill:#b5453c;fill-opacity:1;fill-rule:nonzero;stroke:none" d="m 4515.5,8738.3 728.49,77.4 c 21.23,2.2 41.32,-10.1 48.92,-30.1 l 260.64,-684.8 c 11.43,-30.1 -9.95,-62.5 -42.05,-63.7 l -722.86,-29.2 c -19.64,-0.8 -37.7,10.7 -45.28,28.8 l -266.27,636.7 c -12.14,29 7.11,61.6 38.41,64.9"/>
      <path id="path56" style="fill:#9e332e;fill-opacity:1;fill-rule:nonzero;stroke:none" d="m 4919.3,8418.5 c -8.9,24.5 3.7,44.3 28.15,44.3 24.44,0 51.48,-19.8 60.38,-44.3 8.89,-24.4 -3.71,-44.2 -28.16,-44.2 -24.45,0 -51.48,19.8 -60.37,44.2"/>
      <path id="path58" style="fill:#9e332e;fill-opacity:1;fill-rule:nonzero;stroke:none" d="m 4537.3,8673.6 c -4.37,12 1.82,21.7 13.83,21.7 12.01,0 25.3,-9.7 29.67,-21.7 4.37,-12 -1.83,-21.8 -13.84,-21.8 -12.01,0 -25.29,9.8 -29.66,21.8"/>
      <path id="path60" style="fill:#ffb27d;fill-opacity:1;fill-rule:nonzero;stroke:none" d="m 7579.11,8403.9 c 0,0 -1009.64,-371.8 -1161.33,-364.2 -98.06,4.9 -913.08,291.4 -913.08,291.4 0,0 -60.47,93 -126.2,112.4 -0.02,0.1 -115.86,53.2 -148.97,63.1 -33.12,10 -26.5,-0.1 -16.56,-31.5 5.15,-16.3 23.65,-32.2 40.28,-45.1 -55.68,-15.3 -110.68,-36 -136.32,-40.9 -43.05,-8.3 -165.58,-48.1 -129.15,-107.7 36.43,-59.6 205.32,-72.8 278.17,-59.6 72.85,13.3 165.58,-29.1 165.58,-29.1 0,0 793.27,-509.9 1011.36,-507.3 430.56,4.9 1157.06,269.2 1239.05,321.2 81.99,51.9 135.44,344.7 -102.83,397.3"/>
      <path id="path62" style="fill:#ffb27d;fill-opacity:1;fill-rule:nonzero;stroke:none" d="m 4590.54,8390.7 c 0,0 73.05,115.6 96.97,120.3 72.88,14.4 72.88,-81.6 57.43,-143.5 -16.59,-66.4 -72.71,-129 -88.24,-123.6 -15.53,5.5 -83.34,85.8 -66.16,146.8"/>
      <path id="path64" style="fill:#ffb27d;fill-opacity:1;fill-rule:nonzero;stroke:none" d="m 4587.77,8367.5 c 0,0 -23.35,-129.6 99.74,-197.2 l -99.74,197.2"/>
      <path id="path66" style="fill:#ffffff;fill-opacity:1;fill-rule:nonzero;stroke:none" d="m 6698.19,8846.4 c 0,0 43.4,17.2 165.53,7.3 0,0 -6.48,-47.7 -96.56,-52.4 -51.02,-2.6 -68.97,45.1 -68.97,45.1"/>
      <path id="path68" style="fill:#b5453c;fill-opacity:1;fill-rule:nonzero;stroke:none" d="m 7058.94,8220.5 c 0,0 90.3,-285.8 400.42,-350.9 0,0 512.13,157.8 257.14,506.7 0,0 -252.12,187.3 -657.56,-155.8"/>
      <path id="path70" style="fill:#adcbf9;fill-opacity:1;fill-rule:nonzero;stroke:none" d="m 11392.2,11001.1 c -0.7,-1.2 -0.7,-1.9 -1.3,-3.2 -16.1,-37.2 -32.8,-74.4 -50.7,-111 -115.6,-239.4 -270.2,-456.4 -460.2,-646.4 -218.3,-218.9 -473.1,-390.2 -756.8,-510.3 -293.98,-124.5 -605.28,-187.4 -926.86,-187.4 -321.57,0 -633.52,62.9 -927.49,187.4 -283.71,120.1 -537.89,291.4 -756.76,510.3 -218.88,218.9 -390.9,473.7 -510.93,757.4 -77.02,183 -130.3,372.3 -159.18,567.4 -7.06,43 -12.19,86 -16.05,129.7 -5.13,51.3 -8.98,103.3 -10.27,155.3 -0.64,25.1 -1.28,49.4 -1.28,74.5 0,28.9 0.64,58.4 1.28,87.3 8.34,216.3 44.93,427.5 109.12,631.6 10.91,34.6 22.46,68.6 35.3,102.7 12.84,35.3 26.32,70.6 41.08,105.2 21.18,48.8 43.01,97 66.76,143.8 22.46,44.9 46.21,88.6 71.24,131.6 69.97,119.4 150.2,232.4 240.06,338.3 37.23,43.6 75.74,86 116.18,127 5.77,5.8 10.91,11 16.69,16.7 181,181 387.04,329.9 613.62,444.2 46.86,23.7 94.35,45.6 143.14,66.1 12.83,5.8 26.31,10.9 39.15,16.1 281.78,113.6 580.89,171.3 888.34,171.3 321.58,0 632.88,-62.9 926.86,-187.4 283.7,-120 538.5,-291.4 756.8,-510.3 218.8,-218.8 390.9,-473.7 510.9,-757.4 123.9,-293.3 186.8,-605.2 186.8,-926.8 0,-320.3 -62.3,-631 -185.5,-923.7 z m 133.5,1907.7 c -127.1,301 -309.4,571.9 -541.8,803.6 -232.3,232.3 -502.5,414.6 -803.6,542.4 -311.93,131.5 -643.13,198.3 -983.96,198.3 -341.47,0 -672.68,-66.8 -984.62,-198.3 -37.23,-16.1 -74.45,-32.8 -110.4,-50.1 -59.69,-28.9 -118.75,-59.7 -175.23,-93.1 -188.71,-109.1 -362.01,-242.6 -517.99,-399.2 -32.73,-32.1 -64.18,-65.5 -94.99,-100.2 -38.52,-42.3 -75.1,-86.6 -110.4,-131.5 -56.48,-71.9 -108.48,-147 -156.62,-224 -26.96,-43.1 -51.99,-87.3 -76.38,-131.6 -37.87,-70 -71.89,-141.9 -103.34,-216.3 -23.75,-55.9 -44.93,-111.7 -64.19,-168.9 -12.19,-34.6 -23.11,-69.3 -33.37,-104.6 -51.35,-173.3 -82.8,-352.4 -95,-534 -3.85,-53.9 -5.78,-107.9 -6.42,-162.4 v -14.1 c 0,-54.6 1.93,-109.1 5.14,-163.1 2.56,-44.3 7.05,-88.5 12.19,-132.8 26.96,-236.9 87.94,-467.3 181.65,-688.1 127.09,-301 309.38,-571.9 541.73,-804.3 232.36,-231.7 502.58,-414 803.62,-541.7 311.94,-131.6 643.15,-198.3 984.62,-198.3 340.83,0 672.03,66.7 983.96,198.3 301.1,127.7 571.3,310 803.6,541.7 226,226 405.1,489.1 531.5,780.6 3.2,7.7 7.1,16 10.3,23.7 14.1,33.4 27.6,66.8 39.8,100.1 105.9,281.8 159.1,579 159.1,883.9 0,341.5 -66.7,672.6 -198.9,984 z m -4711.32,-984 c 0,28.9 0.64,58.4 1.28,87.3 8.34,216.3 44.93,427.5 109.12,631.6 -53.92,-2 -105.91,-5.2 -155.97,-8.4 -51.35,-173.3 -82.8,-352.4 -95,-534 -3.85,-53.9 -5.78,-107.9 -6.42,-162.4 v -14.1 c 0,-54.6 1.93,-109.1 5.14,-163.1 49.42,-23.1 100.13,-44.9 153.4,-66.7 -5.13,51.3 -8.98,103.3 -10.27,155.3 -0.64,25.1 -1.28,49.4 -1.28,74.5"/>
      <path id="path72" style="fill:#adcbf9;fill-opacity:1;fill-rule:nonzero;stroke:none" d="m 11996.2,11415.1 -195.8,4.5 c 62.9,-81.5 77,-156.6 37.9,-220.1 -39.2,-64.9 -132.9,-118.1 -272.8,-158.6 -51.4,-15.4 -109.2,-28.2 -173.3,-39.8 -171.4,-30.8 -385.2,-48.7 -634.8,-51.3 -631.6,-7.7 -1415.99,78.3 -2208.06,240.7 -533.39,109.7 -1026.34,245.2 -1439.06,394.1 -62.91,22.5 -123.88,45.6 -182.29,68.7 -34.66,13.5 -68.68,27.6 -102.06,41.7 -53.27,21.8 -103.98,43.6 -153.4,66.7 -34.67,15.5 -68.04,31.5 -100.78,47.5 -455.08,222.1 -663.04,436.5 -569.97,588.6 75.1,123.3 348.53,206.7 767.03,237.5 50.06,3.2 102.05,6.4 155.97,8.4 10.91,34.6 22.46,68.6 35.3,102.7 -54.55,-1.3 -107.19,-3.9 -157.9,-6.5 -527.61,-31.4 -810.03,-124.3 -912.73,-292.4 -119.39,-195.8 43.65,-458.5 565.48,-714 71.89,-35.3 148.92,-70 229.79,-104.6 50.71,-21.2 103.34,-42.4 157.26,-63.6 25.03,-9.6 50.07,-19.2 75.1,-28.9 61.61,-23.1 124.52,-46.2 189.35,-68.6 405.66,-140.6 878.07,-267.7 1385.14,-372.3 709.26,-145.1 1414.04,-231.1 2016.73,-245.2 88.6,-2.6 174.6,-2.6 258,-1.9 216.4,2.5 408.9,15.4 573.9,38.5 62.2,8.3 120.6,18.6 175.2,30.2 257.4,53.2 426.8,136.7 494.2,247.1 46.9,76.4 41.1,161.1 -13.4,250.9"/>
      <path id="path74" style="fill:#adcbf9;fill-opacity:1;fill-rule:nonzero;stroke:none" d="m 10915.7,11477.7 c -2.5,-4.5 -5.1,-9.1 -7.9,-13.5 -77.4,-122.9 -250.4,-186.4 -493.4,-186.3 -116.2,0 -248.5,14.5 -393.8,44 -478.03,97 -1043.11,340.5 -1591.08,685.9 -538.67,339.4 -995.73,736 -1290.14,1119.2 -5.14,6.7 -10.16,13.3 -15.18,19.9 -27.94,37.1 -54.01,73.6 -78.16,109.5 -214.74,318.8 -279.3,589.1 -176.42,752.3 77.43,122.9 250.46,186.3 493.41,186.3 116.19,0 248.47,-14.5 393.85,-44 55.19,-11.2 111.57,-24.3 168.91,-39.4 65.35,-17.1 131.94,-36.7 199.66,-58.6 46.95,23.7 94.87,45.8 143.57,66.4 12.92,5.5 25.84,10.8 38.88,16 -69.92,25.4 -138.94,48.5 -206.88,69.1 -108.75,33.2 -214.68,60.4 -316.88,81.1 -515.87,104.7 -881.95,32.3 -1030.66,-203.7 -141.54,-224.6 -64.45,-562.6 216.48,-956.9 14.34,-20.1 29.18,-40.4 44.59,-60.8 17.21,-22.8 35.04,-45.7 53.38,-68.6 304.58,-380.7 758.59,-770.2 1288.39,-1104 561.69,-353.9 1143.07,-604.1 1636.99,-704.3 154.29,-31.3 295.09,-46.8 420.79,-46.8 294.6,0 505.6,85.1 609.9,250.5 17.1,27.3 31.1,56.2 41.9,86.7 h -150.2"/>
      <path id="path76" style="fill:#adcbf9;fill-opacity:1;fill-rule:nonzero;stroke:none" d="m 9819.17,14154.4 c -274.43,0 -849.36,-768.5 -1299.68,-2010.2 -217.29,-599.1 -359.14,-1184.1 -399.42,-1647.3 -43.33,-498.3 45.68,-713.7 143.43,-749.2 12.54,-4.5 25.66,-6.8 40.11,-6.8 274.42,0 849.35,768.6 1299.68,2010.2 217.29,599.2 359.14,1184.2 399.41,1647.4 43.3,498.3 -45.66,713.7 -143.41,749.1 -12.54,4.6 -25.67,6.8 -40.12,6.8 z M 8303.61,9607 c -29.87,0 -58.73,5 -85.78,14.8 -433.76,157.3 -233.2,1440.6 175.74,2568.1 378.21,1042.8 989.34,2098.4 1425.6,2098.4 29.87,0 58.74,-4.9 85.79,-14.7 247.04,-89.6 262.04,-531.7 231.24,-886.7 -41.3,-474.5 -185.83,-1071.6 -406.99,-1681.4 C 9351,10662.7 8739.87,9607 8303.61,9607"/>
      <path id="path78" style="fill:#adcbf9;fill-opacity:1;fill-rule:nonzero;stroke:none" d="m 10891,12384.4 c -483.2,0 -924.69,45.8 -1318.77,137.3 -471.39,109.5 -876.67,284.1 -1204.6,519.1 -564.38,404.3 -703.07,844 -708.7,862.5 l 128.11,39.1 c 1.29,-4.2 135.36,-421.6 667.91,-799.4 494.94,-351.1 1444.33,-739 3156.75,-592.7 l 11.3,-133.5 c -253.3,-21.6 -497.6,-32.4 -732,-32.4"/>
      <path id="path80" style="fill:#adcbf9;fill-opacity:1;fill-rule:nonzero;stroke:none" d="m 10415.8,9753.6 c -936.83,697.4 -1862.07,1009.6 -2473.29,1148.7 -660.6,150.4 -1102.91,136.2 -1107.29,136 l -4.9,133.9 c 18.63,0.7 464.37,14.9 1141.92,-139.3 623.79,-142 1567.97,-460.5 2523.56,-1171.9 l -80,-107.4"/>
      <g transform="scale(1.73072)" id="g82">
        <path id="path84" style="fill:#f99746;fill-opacity:1;fill-rule:nonzero;stroke:none" d="m 16300,2761.46 c 0,-84.36 -34.3,-160.69 -89.5,-215.98 -55.2,-55.36 -131.6,-89.5 -216,-89.5 h -2488.6 v 592.41 h 2507.3 c 15.6,0 31.1,-1.27 46.1,-3.7 136.5,-22.13 240.7,-140.46 240.7,-283.23"/>
      </g>
      <g transform="scale(1.48309)" id="g86">
        <path id="path88" style="fill:#fcecdb;fill-opacity:1;fill-rule:nonzero;stroke:none" d="m 16300,3215.58 c 0,-96.02 -38.6,-182.93 -101.3,-246.11 l -1.1,-1.08 c -63.2,-63.24 -150.6,-102.35 -247,-102.35 H 12651 v 691.32 h 3307.3 c 96,0 182.8,-39.64 244.9,-103.43 59.9,-61.56 96.8,-145.57 96.8,-238.35"/>
      </g>
      <g transform="scale(1.50804)" id="g90">
        <path id="path92" style="fill:#ed7d2b;fill-opacity:1;fill-rule:nonzero;stroke:none" d="m 16300,2869.55 c 0,-14.13 -5.6,-26.79 -14.9,-36.01 -9.2,-9.15 -21.9,-14.92 -35.9,-14.92 h -3923.1 c -28.2,0 -50.9,22.81 -50.9,50.93 0,13.99 5.6,26.72 14.9,35.94 9.2,9.21 22,14.85 36,14.85 h 3923.1 c 28.1,0 50.8,-22.74 50.8,-50.79"/>
      </g>
      <g transform="scale(1.50804)" id="g94">
        <path id="path96" style="fill:#ed7d2b;fill-opacity:1;fill-rule:nonzero;stroke:none" d="m 16300,3447.65 c 0,-14.06 -5.6,-26.72 -14.9,-35.94 -9.2,-9.22 -21.9,-14.92 -35.9,-14.92 h -3923.1 c -28.2,0 -50.9,22.74 -50.9,50.86 0,14.06 5.6,26.79 14.9,36 9.2,9.16 22,14.86 36,14.86 h 3923.1 c 28.1,0 50.8,-22.81 50.8,-50.86"/>
      </g>
      <g transform="scale(1.19133)" id="g98">
        <path id="path100" style="fill:#f4d2b8;fill-opacity:1;fill-rule:nonzero;stroke:none" d="m 15749.3,3998.3 550.7,-14.52 -550.7,-8.73 v 23.25"/>
      </g>
      <g transform="scale(1.24685)" id="g102">
        <path id="path104" style="fill:#f4d2b8;fill-opacity:1;fill-rule:nonzero;stroke:none" d="m 15048,3691.23 1252,-13.79 -1252,-8.34 v 22.13"/>
      </g>
      <g transform="scale(1.70517)" id="g106">
        <path id="path108" style="fill:#ed7d2b;fill-opacity:1;fill-rule:nonzero;stroke:none" d="m 16300,3090.32 -830.5,-597.54 h -1761.2 v 601.29 h 2544.8 c 15.9,0 31.7,-1.29 46.9,-3.75"/>
      </g>
      <path id="path110" style="fill:#86d1cd;fill-opacity:1;fill-rule:nonzero;stroke:none" d="M 10855.9,4250.7 H 7893.61 v 1205.5 h 2994.49 c 273.9,0 495.9,-222.1 495.9,-496 v -181.4 c 0,-291.7 -236.4,-528.1 -528.1,-528.1"/>
      <path id="path112" style="fill:#fcecdb;fill-opacity:1;fill-rule:nonzero;stroke:none" d="M 7977.81,4250.7 H 4564.62 v 1205.5 h 3424.12 c 266.21,0 482.01,-215.9 482.01,-482.1 v -230.5 c 0,-272.2 -220.7,-492.9 -492.94,-492.9"/>
      <path id="path114" style="fill:#86d1cd;fill-opacity:1;fill-rule:nonzero;stroke:none" d="m 8687.71,4250.7 h -4227.7 c -42.3,0 -76.59,34.2 -76.59,76.5 v 27.2 c 0,42.3 34.29,76.5 76.59,76.5 h 4227.7 c 42.29,0 76.58,-34.2 76.58,-76.5 v -27.2 c 0,-42.3 -34.29,-76.5 -76.58,-76.5"/>
      <path id="path116" style="fill:#86d1cd;fill-opacity:1;fill-rule:nonzero;stroke:none" d="m 8687.71,5275.9 h -4227.7 c -42.3,0 -76.59,34.2 -76.59,76.5 v 27.2 c 0,42.3 34.29,76.6 76.59,76.6 h 4227.7 c 42.29,0 76.58,-34.3 76.58,-76.6 v -27.2 c 0,-42.3 -34.29,-76.5 -76.58,-76.5"/>
      <path id="path118" style="fill:#f4d2b8;fill-opacity:1;fill-rule:nonzero;stroke:none" d="m 4564.62,4853.4 473.57,-20.3 -473.57,-12.2 z"/>
      <path id="path120" style="fill:#f4d2b8;fill-opacity:1;fill-rule:nonzero;stroke:none" d="M 4564.62,4664.3 5691.27,4644 4564.62,4631.8 Z"/>
      <path id="path122" style="fill:#d86713;fill-opacity:1;fill-rule:nonzero;stroke:none" d="m 12525.1,9797.2 -439.7,-5228.6 c 0,0 -46.1,-317 189.7,-317.5 387.6,-1 1929.3,0 1929.3,0 0,0 -291.7,65.9 -288.2,214.4 4.2,175 514,5381.2 514,5381.2 l -1905.1,-49.5"/>
      <path id="path124" style="fill:#ee9849;fill-opacity:1;fill-rule:nonzero;stroke:none" d="m 14329.5,4345.9 c -76.2,-0.2 -1548.8,-4.8 -1926.3,0 -164.5,2.1 -193.3,146.3 -194.7,239.6 -0.6,44.8 5,77.9 5,77.9 l 11.5,135.9 29.1,346.4 25.7,306 33.1,393.2 27.9,331.9 312.4,3715.3 1905.1,49.5 c 0,0 -214.7,-2178.8 -366.6,-3764.8 -16.9,-176.7 -33,-346.1 -48,-504.3 -4.8,-50.5 -9.4,-99.8 -14,-147.9 -14,-150.1 -26.9,-287.9 -38.1,-409.5 -5.9,-64.2 -11.4,-123.7 -16.3,-178.3 -19.4,-213.9 -30.7,-350.5 -30.9,-376.5 -0.1,-15.1 1.2,-29.2 3.7,-42.3 31.3,-166.6 252.8,-172.1 281.4,-172.1"/>
      <g transform="scale(1.1585)" id="g126">
        <path id="path128" style="fill:#f1a34f;fill-opacity:1;fill-rule:nonzero;stroke:none" d="m 6817.9,10912.7 924.58,-3713.84 126.6,-508.59 430.62,-1729.82 H 16300 L 14712.8,10912.7 H 6817.9"/>
      </g>
      <path id="path130" style="fill:#ee9849;fill-opacity:1;fill-rule:nonzero;stroke:none" d="m 7898.54,12642.4 -148.44,-49.5 1667.78,-6995.9 197.36,149.7 -1716.7,6895.7"/>
      <g transform="scale(1.1585)" id="g132">
        <path id="path134" style="fill:#d86713;fill-opacity:1;fill-rule:nonzero;stroke:none" d="m 8129.35,4831.23 h 7951.05 l 219.6,129.22 H 8299.71 l -170.36,-129.22"/>
      </g>
      <path id="path136" style="fill:#f1a34f;fill-opacity:1;fill-rule:nonzero;stroke:none" d="M 12652.6,4249.1 H 14647 v 94.7 h -1994.4 v -94.7"/>
      <g transform="scale(1.13765)" id="g138">
        <path id="path140" style="fill:#f1a34f;fill-opacity:1;fill-rule:nonzero;stroke:none" d="M 16204.1,6168.24 14882.2,11032.6 H 6929.85 v 80.2 h 8052.65 l 1317.5,-4933.75 -95.9,-10.81"/>
      </g>
      <path id="path142" style="fill:#d86713;fill-opacity:1;fill-rule:nonzero;stroke:none" d="m 14140,5597 -10.3,-72.4 -1875.6,-378.9 25.7,306 12.3,145.3 H 14140"/>
      <path id="path144" style="fill:#e78b37;fill-opacity:1;fill-rule:nonzero;stroke:none" d="m 14329.5,4345.9 c -76.2,-0.2 -1548.8,-4.8 -1926.2,0 -164.6,2.1 -193.4,146.3 -194.8,239.6 l 1866.8,351.3 c -19.4,-213.9 -30.7,-350.5 -30.9,-376.5 -0.1,-15.1 1.2,-29.2 3.7,-42.3 31.3,-166.6 252.8,-172.1 281.4,-172.1"/>
      <path id="path146" style="fill:#e78b37;fill-opacity:1;fill-rule:nonzero;stroke:none" d="M 13686.7,7142.6 9615.24,5746.7 9116.35,7750.7 Z"/>
      <g transform="scale(1.13674)" id="g148">
        <path id="path150" style="fill:#699dee;fill-opacity:1;fill-rule:nonzero;stroke:none" d="M 6948.45,11121.7 H 14994.5 L 16300,6246.31 H 8120.71 L 6948.45,11121.7"/>
      </g>
      <path id="path152" style="fill:#d86713;fill-opacity:1;fill-rule:nonzero;stroke:none" d="m 14495.1,6399.8 c -26.4,136 -158,246.1 -293.9,246.1 -135.9,0 -224.7,-110.1 -198.3,-246.1 26.5,-135.9 158.1,-246.1 294,-246.1 135.9,0 224.7,110.2 198.2,246.1"/>
      <g transform="scale(1.11028)" id="g154">
        <path id="path156" style="fill:#e9f3fe;fill-opacity:1;fill-rule:nonzero;stroke:none" d="M 16300,6611.51 H 8586.84 l -873.5,3479.69 -66.95,266.8 -57.15,227.7 -133.96,533.7 h 7601.92 l 147.1,-533.7 62.8,-227.7 73.6,-266.8 959.3,-3479.69"/>
      </g>
      <g transform="scale(1.03564)" id="g158">
        <path id="path160" style="fill:#afcdfb;fill-opacity:1;fill-rule:nonzero;stroke:none" d="M 16300,11348.5 H 8136.15 l -143.62,572.2 h 8149.77 l 157.7,-572.2"/>
      </g>
      <path id="path162" style="fill:#e9f3fe;fill-opacity:1;fill-rule:nonzero;stroke:none" d="m 8626.58,12077.8 c -10.2,40.9 14.7,74.1 55.61,74.1 40.91,0 82.34,-33.2 92.54,-74.1 10.2,-40.9 -14.7,-74.1 -55.6,-74.1 -40.92,0 -82.35,33.2 -92.55,74.1"/>
      <path id="path164" style="fill:#e9f3fe;fill-opacity:1;fill-rule:nonzero;stroke:none" d="m 8872.71,12077.8 c -10.21,40.9 14.69,74.1 55.6,74.1 40.91,0 82.34,-33.2 92.54,-74.1 10.2,-40.9 -14.69,-74.1 -55.6,-74.1 -40.91,0 -82.34,33.2 -92.54,74.1"/>
      <path id="path166" style="fill:#e9f3fe;fill-opacity:1;fill-rule:nonzero;stroke:none" d="m 9137.73,12077.8 c -10.2,40.9 14.7,74.1 55.61,74.1 40.91,0 82.34,-33.2 92.54,-74.1 10.2,-40.9 -14.69,-74.1 -55.61,-74.1 -40.9,0 -82.34,33.2 -92.54,74.1"/>
      <path id="path168" style="fill:#699dee;fill-opacity:1;fill-rule:nonzero;stroke:none" d="m 9717.8,7930.7 c 0,170.9 143.12,309.5 319.7,309.5 176.5,0 319.6,-138.6 319.6,-309.5 0,-171 -143.1,-309.5 -319.6,-309.5 -176.58,0 -319.7,138.5 -319.7,309.5"/>
      <path id="path170" style="fill:#e9f3fe;fill-opacity:1;fill-rule:nonzero;stroke:none" d="m 10011.8,8113.1 183.6,-158.8 c 16.2,-14 16.1,-38.5 -0.3,-52.3 l -180.5,-152.3 c -23.21,-19.6 -59.42,-3.8 -59.72,25.9 l -3.13,311.2 c -0.3,30.3 36.68,46.5 60.05,26.3"/>
      <g transform="scale(1.05796)" id="g172">
        <path id="path174" style="fill:#afcdfb;fill-opacity:1;fill-rule:nonzero;stroke:none" d="m 16300,7462.36 c 0,-15.12 -6.2,-28.93 -16.2,-38.85 -10,-10.02 -23.8,-16.26 -38.9,-16.26 h -6166.1 c -30.3,0 -55.1,24.86 -55.1,55.11 0,15.12 6.2,28.92 16.2,38.94 10,10.02 23.8,16.26 38.9,16.26 h 6166.1 c 30.3,0 55.1,-24.86 55.1,-55.2"/>
      </g>
      <path id="path176" style="fill:#699dee;fill-opacity:1;fill-rule:nonzero;stroke:none" d="M 11389.2,7953.3 V 7836.6 H 10663 c -32.1,0 -58.3,26.3 -58.3,58.3 0,16 6.6,30.6 17.1,41.2 10.6,10.6 25.2,17.2 41.2,17.2 h 726.2"/>
      <g transform="scale(1.00853)" id="g178">
        <path id="path180" style="fill:#afcdfb;fill-opacity:1;fill-rule:nonzero;stroke:none" d="m 16300,8361.4 h -5623.1 l -636.9,2301.5 -48.8,176.5 -41.64,150.5 -97.75,353 H 15394 l 107.2,-353 45.7,-150.5 53.8,-176.5 699.3,-2301.5"/>
      </g>
      <path id="path182" style="fill:#e9f3fe;fill-opacity:1;fill-rule:nonzero;stroke:none" d="m 15571.9,10151.8 h -1864.6 l -211.2,763.2 -16.2,58.5 -13.7,49.9 -32.5,117 h 1837.8 l 35.5,-117 15.2,-49.9 17.8,-58.5 231.9,-763.2"/>
      <path id="path184" style="fill:#c6dcfc;fill-opacity:1;fill-rule:nonzero;stroke:none" d="m 14474.6,10340.9 h -646.5 l -73.2,264.7 -5.7,20.2 -4.7,17.4 -11.3,40.5 h 637.2 l 12.4,-40.5 5.2,-17.4 6.2,-20.2 80.4,-264.7"/>
      <path id="path186" style="fill:#c6dcfc;fill-opacity:1;fill-rule:nonzero;stroke:none" d="m 15297.7,10340.9 h -646.5 l -73.3,264.7 -5.6,20.2 -4.8,17.4 -11.2,40.5 h 637.2 l 12.3,-40.5 5.3,-17.4 6.2,-20.2 80.4,-264.7"/>
      <path id="path188" style="fill:#afcdfb;fill-opacity:1;fill-rule:nonzero;stroke:none" d="m 14834.4,10995.1 h -1181.6 c -9.2,0 -16.8,7.6 -16.8,16.9 0,9.2 7.6,16.8 16.8,16.8 h 1181.6 c 9.3,0 16.8,-7.6 16.8,-16.8 0,-9.3 -7.5,-16.9 -16.8,-16.9"/>
      <path id="path190" style="fill:#afcdfb;fill-opacity:1;fill-rule:nonzero;stroke:none" d="m 14878.2,10904.2 h -1181.6 c -9.3,0 -16.8,7.6 -16.8,16.9 0,9.2 7.5,16.8 16.8,16.8 h 1181.6 c 9.2,0 16.8,-7.6 16.8,-16.8 0,-9.3 -7.6,-16.9 -16.8,-16.9"/>
      <path id="path192" style="fill:#afcdfb;fill-opacity:1;fill-rule:nonzero;stroke:none" d="m 15082.5,10772.2 h -1330.3 c -10.4,0 -19,8.5 -19,18.9 0,10.5 8.6,19 19,19 h 1330.3 c 10.4,0 18.9,-8.5 18.9,-19 0,-10.4 -8.5,-18.9 -18.9,-18.9"/>
      <path id="path194" style="fill:#e9f3fe;fill-opacity:1;fill-rule:nonzero;stroke:none" d="m 15920.3,8958.4 h -1864.6 l -211.2,763.2 -16.1,58.5 -13.8,49.9 -32.4,117 h 1837.7 l 35.6,-117 15.1,-49.9 17.8,-58.5 231.9,-763.2"/>
      <path id="path196" style="fill:#c6dcfc;fill-opacity:1;fill-rule:nonzero;stroke:none" d="m 14823,9147.5 h -646.5 l -73.2,264.7 -5.6,20.2 -4.8,17.3 -11.3,40.6 h 637.2 l 12.4,-40.6 5.2,-17.3 6.2,-20.2 80.4,-264.7"/>
      <path id="path198" style="fill:#c6dcfc;fill-opacity:1;fill-rule:nonzero;stroke:none" d="m 15646.1,9147.5 h -646.5 l -73.2,264.7 -5.7,20.2 -4.7,17.3 -11.3,40.6 h 637.2 l 12.3,-40.6 5.3,-17.3 6.2,-20.2 80.4,-264.7"/>
      <path id="path200" style="fill:#afcdfb;fill-opacity:1;fill-rule:nonzero;stroke:none" d="m 15182.8,9801.7 h -1181.6 c -9.2,0 -16.8,7.6 -16.8,16.9 0,9.2 7.6,16.8 16.8,16.8 h 1181.6 c 9.3,0 16.8,-7.6 16.8,-16.8 0,-9.3 -7.5,-16.9 -16.8,-16.9"/>
      <path id="path202" style="fill:#afcdfb;fill-opacity:1;fill-rule:nonzero;stroke:none" d="M 15226.6,9710.8 H 14045 c -9.3,0 -16.8,7.6 -16.8,16.9 0,9.2 7.5,16.8 16.8,16.8 h 1181.6 c 9.2,0 16.8,-7.6 16.8,-16.8 0,-9.3 -7.6,-16.9 -16.8,-16.9"/>
      <path id="path204" style="fill:#afcdfb;fill-opacity:1;fill-rule:nonzero;stroke:none" d="M 15258.6,9620 H 14077 c -9.3,0 -16.9,7.5 -16.9,16.8 0,9.2 7.6,16.8 16.9,16.8 h 1181.6 c 9.2,0 16.8,-7.6 16.8,-16.8 0,-9.3 -7.6,-16.8 -16.8,-16.8"/>
      <path id="path206" style="fill:#f99746;fill-opacity:1;fill-rule:nonzero;stroke:none" d="m 6050.2,4896.7 c 0,0 -103.01,-49.5 -137.12,-130.8 -6.03,-14.2 -9.9,-29.4 -10.69,-45.5 -5.69,-108 0,-352.4 0,-352.4 L 5598.24,4490.2 5294.88,4368 v 331.3 c 0,62.6 26.04,123.6 74.36,163.5 23.43,19.3 51.85,33.9 84.03,33.9 h 596.93"/>
      <path id="path208" style="fill:#ed7d2b;fill-opacity:1;fill-rule:nonzero;stroke:none" d="m 6050.2,4896.7 c 0,0 -103.01,-49.5 -137.12,-130.8 l -609.52,-4.8 c 0,0 23.93,116.4 149.71,135.6 h 596.93"/>
      <g transform="scale(1.50515)" id="g210">
        <path id="path212" style="fill:#b5453c;fill-opacity:1;fill-rule:nonzero;stroke:none" d="M 13878.4,3499.19 H 16300 V 4535.5 h -2448.7 c -230,0 -416.6,-186.56 -416.6,-416.63 v -176 c 0,-245.02 198.7,-443.68 443.7,-443.68"/>
      </g>
      <g transform="scale(1.7575)" id="g214">
        <path id="path216" style="fill:#fcecdb;fill-opacity:1;fill-rule:nonzero;stroke:none" d="M 13908.5,2996.76 H 16300 v 887.52 h -2399.4 c -191.5,0 -346.8,-155.28 -346.8,-346.8 v -186.06 c 0,-195.85 158.8,-354.66 354.7,-354.66"/>
      </g>
      <g transform="scale(1.77123)" id="g218">
        <path id="path220" style="fill:#b5453c;fill-opacity:1;fill-rule:nonzero;stroke:none" d="m 13298.6,2973.52 h 2946.7 c 30.2,0 54.7,24.5 54.7,54.71 v 22.36 c 0,30.14 -24.5,54.65 -54.7,54.65 h -2946.7 c -30.2,0 -54.6,-24.51 -54.6,-54.65 v -22.36 c 0,-30.21 24.4,-54.71 54.6,-54.71"/>
      </g>
      <g transform="scale(1.77123)" id="g222">
        <path id="path224" style="fill:#b5453c;fill-opacity:1;fill-rule:nonzero;stroke:none" d="m 13298.6,3722.44 h 2946.7 c 30.2,0 54.7,24.44 54.7,54.65 v 22.35 c 0,30.21 -24.5,54.71 -54.7,54.71 h -2946.7 c -30.2,0 -54.6,-24.5 -54.6,-54.71 v -22.35 c 0,-30.21 24.4,-54.65 54.6,-54.65"/>
      </g>
      <g transform="scale(1.7575)" id="g226">
        <path id="path228" style="fill:#f4d2b8;fill-opacity:1;fill-rule:nonzero;stroke:none" d="m 16300,3440.52 -332.9,-14.91 332.9,-8.99 v 23.9"/>
      </g>
      <g transform="scale(1.7575)" id="g230">
        <path id="path232" style="fill:#f4d2b8;fill-opacity:1;fill-rule:nonzero;stroke:none" d="m 16300,3644.73 -792.1,-14.91 792.1,-8.99 v 23.9"/>
      </g>
      <g transform="scale(1.7143)" id="g234">
        <path id="path236" style="fill:#b5453c;fill-opacity:1;fill-rule:nonzero;stroke:none" d="m 15907.1,3724.32 c 0,0 53.5,-28.82 71.3,-76.24 3.1,-8.29 5.1,-17.21 5.6,-26.55 2.9,-62.99 0,-205.62 0,-205.62 l 158.2,71.34 157.8,-71.34 v 193.32 c 0,36.51 -13.6,72.04 -38.7,95.37 -12.2,11.26 -27,19.72 -43.7,19.72 h -310.5"/>
      </g>
      <g transform="scale(1.71382)" id="g238">
        <path id="path240" style="fill:#9e3732;fill-opacity:1;fill-rule:nonzero;stroke:none" d="m 15911.5,3725.36 c 0,0 53.6,-28.83 71.3,-76.26 l 317.2,-2.86 c 0,0 -12.4,67.92 -77.9,79.12 h -310.6"/>
      </g>
      <g transform="scale(1.21687)" id="g242">
        <path id="path244" style="fill:#e49963;fill-opacity:1;fill-rule:nonzero;stroke:none" d="m 16240.3,7042.44 c 0,0 -159.1,-90.48 -203.7,-90.48 -44.6,0 -219.6,33.78 -268.3,8.88 -48.7,-24.9 -137,-125.16 -153.6,-157.95 -29.7,-58.84 119.9,-32.87 190.7,17.34 10.2,7.23 23,9.95 35.3,7.23 36.7,-7.97 112.8,-21.77 149.5,-8.22 49.5,18.33 309.8,38.63 309.8,38.63 l -59.7,184.57"/>
      </g>
      <g transform="scale(1.19898)" id="g246">
        <path id="path248" style="fill:#163560;fill-opacity:1;fill-rule:nonzero;stroke:none" d="m 16300,3829.1 c 0,0 -17.3,-280.65 -71.6,-284.66 -7.3,-0.5 -275.4,-0.5 -275.4,-0.5 l -342.3,1.92 c 0,0 2.3,82.49 102.3,99.92 100.1,17.43 267.5,87.74 328.1,220.02 63.8,139.12 258.9,-36.7 258.9,-36.7"/>
      </g>
      <g transform="scale(1.30284)" id="g250">
        <path id="path252" style="fill:#ed7d2b;fill-opacity:1;fill-rule:nonzero;stroke:none" d="m 16300,7729.34 c 0,0 -154.1,-1095.61 -409.4,-1193.7 -126,-48.43 -682.6,-158.19 -847.2,-169.24 0,0 -40.3,32.77 -30.5,165.94 0,0 583.2,214.07 666,330.51 123.3,173.31 -76.5,707.92 78.1,870.67 154.8,162.75 415.4,232.7 543,-4.18"/>
      </g>
      <g transform="scale(1.31721)" id="g254">
        <path id="path256" style="fill:#599dad;fill-opacity:1;fill-rule:nonzero;stroke:none" d="m 16070.7,5362 c -44.5,-75.47 -95.9,-146.14 -148.9,-213.11 -163.9,-206.87 -342.3,-377.46 -373.3,-538.71 -6.2,-32.11 -16,-66.73 -28.9,-103.17 -12.9,-36.9 -29,-75.77 -47.5,-115.93 -69.5,-151 -173.5,-320.29 -277.3,-474.1 -179.5,-265.94 -348.2,-487.93 -348.2,-487.93 l -309.6,13.21 c 12.4,31.05 147.4,398.27 328,847.02 73.3,182.2 151.3,375.94 226.5,562.85 10.1,24.98 20.1,49.8 30,74.4 23,57.24 45.7,113.5 67.7,168.31 169.6,421.42 304.7,756.98 304.7,756.98 0,0 677.7,256.67 748.1,90.34 58,-137.18 10.8,-271.56 -171.3,-580.16"/>
      </g>
      <g transform="scale(1.27429)" id="g258">
        <path id="path260" style="fill:#163560;fill-opacity:1;fill-rule:nonzero;stroke:none" d="m 16077.4,4357 c 0,0 222.6,-142.98 200.9,-189.44 -2.8,-6.2 -125.8,-226.48 -125.8,-226.48 l -158.6,-280.23 c 0,0 -66.7,39.63 -35.2,129.8 31.6,90.24 50.6,260.06 -30.2,370.48 -85,116.22 148.9,195.87 148.9,195.87"/>
      </g>
      <g transform="scale(1.31572)" id="g262">
        <path id="path264" style="fill:#6bb7bf;fill-opacity:1;fill-rule:nonzero;stroke:none" d="m 15465.8,3976.38 c 0,0 134.7,118.8 158.4,205.98 0,0 -555,665.03 -675.4,814.08 -5.5,6.84 -4.1,14.36 3.2,22.57 90.9,102.45 1100.8,310.86 1232.8,516.14 45.5,70.76 71.2,137.95 85.3,196.63 29.9,125.33 6.2,211.89 6.2,211.89 l -1008.6,29.19 c 0,0 -839.7,-522.91 -934.8,-879.44 -95,-356.54 1132.9,-1117.04 1132.9,-1117.04"/>
      </g>
      <g transform="scale(1.3133)" id="g266">
        <path id="path268" style="fill:#5aa9ad;fill-opacity:1;fill-rule:nonzero;stroke:none" d="m 14979.5,5028.25 c 91.1,102.64 1102.8,311.43 1235.1,517.09 45.6,70.89 71.3,138.2 85.4,196.99 v 127.92 l -429.5,67.54 c 0,0 -121.7,-374.78 -482.4,-515.27 -337.9,-131.65 -401.8,-365.19 -408.6,-394.27"/>
      </g>
      <g transform="scale(1.29844)" id="g270">
        <path id="path272" style="fill:#e49963;fill-opacity:1;fill-rule:nonzero;stroke:none" d="m 15750.6,7824.8 c 206.7,-53.44 549.4,138.11 549.4,138.11 0,0 -133.1,89.46 -182.4,285.93 -2.5,9.91 -4.7,20.05 -6.8,30.47 -21.6,4.59 -62.4,13.26 -106.2,22.5 l -157.8,-141.47 c 0,0 3.6,-58.75 23.3,-159.71 3.5,-17.63 7.4,-36.53 11.9,-56.67 -84.8,-52.49 -131.4,-119.16 -131.4,-119.16"/>
      </g>
      <g transform="scale(1.31867)" id="g274">
        <path id="path276" style="fill:#f99746;fill-opacity:1;fill-rule:nonzero;stroke:none" d="m 16265.6,6860.94 c -29.2,-392.22 9.1,-988.65 -23.9,-1091.94 -28.6,-89.18 -353.9,-36.17 -483.7,-6.44 -48.1,11.07 -106.2,26.76 -166.4,45.34 -167.7,51.95 -350.4,126.12 -370,181.17 -0.7,2.13 -1.4,4.25 -1.8,6.29 -1.8,8.04 -1.4,15.48 0.3,23.06 6.5,28.06 31.7,58.47 34.8,127.93 3.2,77.58 2.8,168.88 5.6,267.09 0.2,11.07 0.3,23.13 1.6,34.12 v 4.02 c 0,2.13 0.1,4.17 0.2,6.3 2.8,109.58 8.5,224.69 15.2,338.9 4.2,71.74 9.1,142.79 14.7,210.82 14.6,175.71 34.3,331.92 60.4,430.73 42.6,160.99 136.7,266 222.2,342.96 l 61.9,53.08 c 69,-15.08 150.7,-5.07 224.5,29.91 80,37.95 107.6,65.15 121.4,54.9 184.6,-142.41 317.4,-578.82 283,-1058.24"/>
      </g>
      <g transform="scale(1.32643)" id="g278">
        <path id="path280" style="fill:#ed7d2b;fill-opacity:1;fill-rule:nonzero;stroke:none" d="m 15500.4,5773.92 c -166.8,51.64 -348.4,125.38 -367.9,180.11 -0.7,2.11 -1.4,4.22 -1.7,6.26 0,7.69 0.1,15.3 0.3,22.92 6.5,27.89 31.5,58.12 34.5,127.18 3.2,77.12 2.8,167.89 5.7,265.52 0.1,11.01 0.3,23 1.5,33.93 v 4 c 0,2.11 0.1,4.14 0.2,6.25 l 673.9,858.7 c 0,0 453.1,-943.44 -346.5,-1504.87"/>
      </g>
      <g transform="scale(1.28391)" id="g282">
        <path id="path284" style="fill:#d68d5d;fill-opacity:1;fill-rule:nonzero;stroke:none" d="m 16026.1,8252.67 c 0,0 3.6,-59.41 23.6,-161.51 156,50.4 226.7,191.27 250.3,251.02 -2.6,10.01 -4.8,20.27 -6.9,30.81 -21.8,4.64 -63.1,13.41 -107.4,22.76 l -159.6,-143.08"/>
      </g>
      <g transform="scale(1.28747)" id="g286">
        <path id="path288" style="fill:#e49963;fill-opacity:1;fill-rule:nonzero;stroke:none" d="m 15960.9,8140.07 c 0,0 339.1,56.6 300.7,267.27 -38.6,210.67 -20.7,359.86 -238.9,332.63 -218.2,-27.23 -245.4,-115.29 -249.7,-188.73 -4.3,-73.44 98.6,-420.46 187.9,-411.17"/>
      </g>
      <g transform="scale(1.15524)" id="g290">
        <path id="path292" style="fill:#4a75cb;fill-opacity:1;fill-rule:nonzero;stroke:none" d="m 16300,7062.95 -33.3,-10.82 -283.7,872.81 33.3,10.82 283.7,-872.81"/>
      </g>
      <g transform="scale(1.22111)" id="g294">
        <path id="path296" style="fill:#4a75cb;fill-opacity:1;fill-rule:nonzero;stroke:none" d="m 16298.9,6745.66 -910.9,-19.49 1.2,-54.46 910.8,19.41 -1.1,54.54"/>
      </g>
      <g transform="scale(1.21975)" id="g298">
        <path id="path300" style="fill:#e49963;fill-opacity:1;fill-rule:nonzero;stroke:none" d="m 16300,6655.06 c 0,0 -293,-77.23 -402.9,-69.11 -109.9,8.12 -201.2,60.34 -215.1,87.64 -13.9,27.3 -42.9,75.67 32,66.73 74.7,-8.93 176.9,-24.84 180,-10.49 3.2,14.43 -61,13.04 -61,13.04 0,0 -19.3,28.2 5.1,29.18 24.4,1.07 95.6,20.42 122.1,7.14 26.5,-13.2 50.8,-62.07 70.2,-60.02 19.3,2.05 245.2,101.75 245.2,101.75 l 24.4,-165.86"/>
      </g>
      <g transform="scale(1.2974)" id="g302">
        <path id="path304" style="fill:#f99746;fill-opacity:1;fill-rule:nonzero;stroke:none" d="m 16300,7716.57 c 0,0 -32.6,-1110.54 -276.5,-1236.71 -120.3,-62.28 -663.7,-233.47 -826.9,-262.68 0,0 -43.8,28.21 -48.7,162.17 0,0 558.3,278.25 628.1,403.65 103.9,186.61 -154.7,698.09 -18.4,877.68 136.4,179.53 388.8,278.18 542.4,55.89"/>
      </g>
      <g transform="scale(1.29072)" id="g306">
        <path id="path308" style="fill:#2b478b;fill-opacity:1;fill-rule:nonzero;stroke:none" d="m 16214.1,8298.2 c 0,0 3.9,72.1 -40.6,113.41 0,0 15.5,72.28 -13.1,84.2 -28.6,11.91 -34.6,-48.85 -47.7,-39.32 -13.1,9.53 -71.5,54.81 -96.5,121.54 -25,66.73 -254,-14.09 -280.8,-26.11 -26.6,-12.02 -112.4,32.06 -129.1,67.81 0,0 47.6,38.13 69.1,66.73 21.4,28.6 171.6,221.63 381.3,166.82 209.7,-54.82 238.3,-154.9 226.4,-240.69 -11.9,-85.8 16.9,-285.6 -69,-314.39"/>
      </g>
      <g transform="scale(1.53174)" id="g310">
        <path id="path312" style="fill:#f4a269;fill-opacity:1;fill-rule:nonzero;stroke:none" d="m 15578.9,6211.84 c 0,0 90.4,-133.9 142,-415.41 45.3,-246.52 84.9,-337.59 150.2,-388.12 65.3,-50.53 428.9,-199.84 428.9,-199.84 l -27.2,-63.72 c 0,0 -533,72.6 -592.9,161.71 -59.9,89.12 -288.1,615.45 -270.5,736.68 17.7,121.24 169.5,168.7 169.5,168.7"/>
      </g>
      <g transform="scale(1.63375)" id="g314">
        <path id="path316" style="fill:#ffb27d;fill-opacity:1;fill-rule:nonzero;stroke:none" d="m 15829.9,3066.86 c -4.5,-48.72 63.4,-60.59 142,-64.51 78.6,-3.92 54.8,-20.02 162.5,-39.48 107.7,-19.53 150.8,9.97 158.7,24.48 6.9,12.92 -43.2,33.12 -96.5,55.95 -6.8,2.87 -13.5,5.81 -20.2,8.75 -60.1,26.38 -93.8,80.25 -140.6,130.19 -44.4,47.32 -86.5,198.74 -86.5,198.74 l -146.3,31.28 c 0,0 41.1,-136.31 55.3,-194.52 8.4,-34.21 -4,-72.47 -15,-101.6 -5.9,-15.86 -11.9,-32.08 -13.4,-49.28"/>
      </g>
      <g transform="scale(1.63375)" id="g318">
        <path id="path320" style="fill:#c65447;fill-opacity:1;fill-rule:nonzero;stroke:none" d="m 15971.9,3002.35 c 78.6,-3.92 54.8,-20.02 162.5,-39.48 107.7,-19.53 150.8,9.97 158.7,24.48 6.9,12.92 -43.2,33.12 -96.5,55.95 l -0.9,-0.92 c 0,0 -75.7,-25.71 -163.1,-1.96 -71.3,19.34 -140.2,61.94 -189.3,75.72 -5.9,-15.86 -11.9,-32.08 -13.4,-49.28 -4.5,-48.72 63.4,-60.59 142,-64.51"/>
      </g>
      <g transform="scale(1.60417)" id="g322">
        <path id="path324" style="fill:#163560;fill-opacity:1;fill-rule:nonzero;stroke:none" d="m 14637.4,4891.12 c 0,0 990.5,74.49 1177.1,-43.2 186.4,-117.69 485.5,-1488.49 485.5,-1488.49 0,0 -18.5,-14.84 -59.7,-19.26 -38.4,-4.18 -122.8,18.39 -122.8,18.39 0,0 -429.8,613.33 -460.1,767.87 -30.3,154.53 -22.9,292.42 -91.8,296.1 -68.9,3.68 -928.3,-104.48 -1058.3,124.55 -130,228.97 -22.6,455.69 -22.6,455.69 l 152.7,-111.65"/>
      </g>
      <g transform="scale(1.59645)" id="g326">
        <path id="path328" style="fill:#ffb27d;fill-opacity:1;fill-rule:nonzero;stroke:none" d="m 15818.9,2978.66 c -4.6,-49.86 64.8,-62.01 145.2,-66.02 80.5,-4.01 56.2,-20.48 166.4,-40.4 110.2,-19.98 154.4,10.15 162.4,25.06 7.1,13.21 -44.1,33.88 -98.8,57.25 -6.8,2.88 -13.7,5.89 -20.6,8.89 -61.5,27.06 -95.9,82.18 -143.9,133.3 -45.4,48.42 -88.5,203.39 -88.5,203.39 l -149.8,32.01 c 0,0 42.1,-139.5 56.7,-199.07 8.6,-35.02 -4.1,-74.23 -15.3,-103.98 -6.1,-16.22 -12.2,-32.83 -13.8,-50.43"/>
      </g>
      <g transform="scale(1.59645)" id="g330">
        <path id="path332" style="fill:#c65447;fill-opacity:1;fill-rule:nonzero;stroke:none" d="m 15964.1,2912.64 c 80.5,-4.01 56.2,-20.48 166.4,-40.4 110.2,-19.98 154.4,10.15 162.4,25.06 7.1,13.21 -44.1,33.88 -98.8,57.25 l -0.8,-0.94 c 0,0 -77.5,-26.31 -167,-2 -72.9,19.79 -143.4,63.39 -193.6,77.48 -6.1,-16.22 -12.2,-32.83 -13.8,-50.43 -4.6,-49.86 64.8,-62.01 145.2,-66.02"/>
      </g>
      <g transform="scale(1.56799)" id="g334">
        <path id="path336" style="fill:#1c468a;fill-opacity:1;fill-rule:nonzero;stroke:none" d="m 14776.7,4941.17 c 0,0 900.3,-42.6 1086.2,-170.34 185.9,-127.75 437.1,-1541.09 437.1,-1541.09 0,0 -19.5,-14.41 -61.8,-17.34 -39.3,-2.68 -124.7,23.72 -124.7,23.72 0,0 -415,644.14 -439.8,803.32 -24.9,159.19 -11.8,299.82 -82.1,306.38 -70.4,6.51 -953.2,-69.83 -1076.9,169.46 -123.8,239.29 262,425.89 262,425.89"/>
      </g>
      <g transform="scale(1.46837)" id="g338">
        <path id="path340" style="fill:#b5453c;fill-opacity:1;fill-rule:nonzero;stroke:none" d="m 16121.7,7391.79 c -42.6,28.15 -95.6,34.44 -132.9,34.72 10.2,9.24 29.3,11.59 29.3,11.59 -22.9,4.96 -75.8,-14.47 -75.8,-14.47 -312.4,144.9 -394.2,-323.76 -394.8,-433.88 -0.6,-110.09 -8.2,-236.36 -174.8,-324.08 -327.8,-172.5 -84.6,-528.07 -84.6,-528.07 2.3,-1.63 218.4,-287.73 218.4,-287.73 -2.1,89.22 349.6,561.78 572.2,687.63 57,73.01 84.6,206.83 86.6,217.39 -16.1,-106.52 -38.4,-165.36 -57,-198.11 191.7,154.25 126.5,760.4 13.4,835.01"/>
      </g>
      <g transform="scale(1.45557)" id="g342">
        <path id="path344" style="fill:#ffb27d;fill-opacity:1;fill-rule:nonzero;stroke:none" d="m 15877.2,6699.16 c 0,0 90.4,8.59 180.6,0 61.4,-5.77 122.2,-24.87 156.7,-39.3 85.5,-35.72 76.6,-187.07 -102.8,-159.04 -179.3,28.03 -247.1,153.48 -234.5,198.34"/>
      </g>
      <g transform="scale(1.44955)" id="g346">
        <path id="path348" style="fill:#ffb27d;fill-opacity:1;fill-rule:nonzero;stroke:none" d="m 16274.3,6616.21 c 1.1,-0.55 25.7,-130.73 -92.2,-125.49 -77.4,3.38 -244.4,97.07 -229.6,163.36 7,31.46 65.5,113.21 77.3,299.8 l 14.1,-3.77 236.9,-63.54 c 0,0 -10.5,-75.19 -15.4,-146.39 -4.2,-59.74 -4.3,-116.66 8.9,-123.97"/>
      </g>
      <g transform="scale(1.44783)" id="g350">
        <path id="path352" style="fill:#f4a269;fill-opacity:1;fill-rule:nonzero;stroke:none" d="m 16300,6894.71 c 0,0 -10.5,-75.28 -15.4,-146.56 -134.3,12.78 -197.2,140.21 -221.8,210.18 l 237.2,-63.62"/>
      </g>
      <g transform="scale(1.46795)" id="g354">
        <path id="path356" style="fill:#b5453c;fill-opacity:1;fill-rule:nonzero;stroke:none" d="m 15819.9,6890.42 c 0,0 -62.2,114.49 -72.6,209.55 -7.5,67.85 43.3,314.16 290.7,261.71 0,0 72.1,-11.99 137.2,-62.6 51.8,-40.24 124.8,-124.55 22.8,-335.64 l -27.6,-71.76 -350.5,-1.26"/>
      </g>
      <g transform="scale(1.46395)" id="g358">
        <path id="path360" style="fill:#ffb27d;fill-opacity:1;fill-rule:nonzero;stroke:none" d="m 16160.6,6749.13 c 0,0 -315.1,15.78 -302.3,211.84 12.9,196.09 -19.2,330.18 182.6,328.39 201.7,-1.79 235.9,-79.18 247.5,-145.67 11.6,-66.49 -45.5,-393.67 -127.8,-394.56"/>
      </g>
      <g transform="scale(1.45358)" id="g362">
        <path id="path364" style="fill:#b5453c;fill-opacity:1;fill-rule:nonzero;stroke:none" d="m 16300,7336.56 c 0,0 -102.2,-225.88 -237.7,-251.25 -135.5,-25.37 -190.9,14.17 -190.9,14.17 0,0 107.6,74.35 138.2,214.63 0,0 232.3,137.08 290.4,22.45"/>
      </g>
      <g transform="scale(1.46874)" id="g366">
        <path id="path368" style="fill:#b5453c;fill-opacity:1;fill-rule:nonzero;stroke:none" d="m 16109.2,7243.65 c 0,0 60.8,-55.47 73.1,-106.28 12.3,-50.8 12.5,-153.72 42.6,-152.23 0,0 75.1,151.52 8.2,244.53 -70.8,98.62 -123.9,13.98 -123.9,13.98"/>
      </g>
      <g transform="scale(1.48246)" id="g370">
        <path id="path372" style="fill:#1c468a;fill-opacity:1;fill-rule:nonzero;stroke:none" d="m 16270.1,5276.5 c -25.1,-30.15 -103.8,-39.39 -187.8,-53.22 -66.2,-10.93 -135.6,-24.62 -185,-53.63 -112.2,-65.84 -478.7,-288.44 -586.1,-278.25 -41.6,3.91 -33.8,83.37 -8.6,188.87 39.7,166.55 122.8,397.92 122.8,498.5 0,54.9 18.3,184.83 42.7,333.36 2,11.94 4,24.02 6,36.22 48.3,288.78 115.1,629.3 115.1,629.3 0,0 74.5,-162.64 219.8,-162.64 145.2,0 111.4,124.05 111.4,124.05 0,0 132.5,-15.58 163.8,-49.31 31.4,-33.72 110.8,-179.5 126.5,-219.23 0,0 3.2,-50.59 -122,-74.67 0,0 30.5,-137.34 34.1,-228.81 2.7,-67.66 -46.1,-279.27 -60.2,-410.87 -5,-46.61 -5.6,-83.24 2,-99.83 9.6,-21.25 41,-42.44 76.6,-63.21 70.8,-41.22 158.8,-80.88 128.9,-116.63"/>
      </g>
      <g transform="scale(1.47533)" id="g374">
        <path id="path376" style="fill:#163560;fill-opacity:1;fill-rule:nonzero;stroke:none" d="m 16219.2,5419.19 c 80.8,-137.73 -219,-179.08 -268.7,-208.22 -112.6,-66.23 -457.4,-306.17 -565.3,-295.94 -41.8,3.93 -34,83.78 -8.7,189.79 40,167.35 123.5,399.84 123.5,500.9 0,55.18 18.3,185.72 42.8,334.98 l 129.9,124.72 c 0,0 139.3,-359.79 272,-418.76 69.5,-30.9 142.1,-51.31 195.5,-63.64 -5,-46.84 -5.7,-83.65 2,-100.32 9.7,-21.35 41.2,-42.64 77,-63.51"/>
      </g>
      <g transform="scale(1.51006)" id="g378">
        <path id="path380" style="fill:#9e332e;fill-opacity:1;fill-rule:nonzero;stroke:none" d="m 16300,5160.01 h -294.4 v 34.83 h 294.4 v -34.83"/>
      </g>
      <g transform="scale(1.58453)" id="g382">
        <path id="path384" style="fill:#9e332e;fill-opacity:1;fill-rule:nonzero;stroke:none" d="m 15474.3,4922.04 c 2.8,10.98 258,411.66 258,411.66 h 567.7 l -284.8,-400.87 -540.9,-10.79"/>
      </g>
      <g transform="scale(1.58453)" id="g386">
        <path id="path388" style="fill:#b5453c;fill-opacity:1;fill-rule:nonzero;stroke:none" d="m 15498.2,4917.49 c 2.8,10.98 258.7,416.21 258.7,416.21 h 543.1 l -270.9,-416.21 h -530.9"/>
      </g>
      <g transform="scale(1.55366)" id="g390">
        <path id="path392" style="fill:#9e332e;fill-opacity:1;fill-rule:nonzero;stroke:none" d="m 16294.3,5226.04 c -5.7,-16.54 -23.7,-29.93 -40.3,-29.93 -16.6,0 -25.3,13.39 -19.7,29.93 5.8,16.6 23.8,29.99 40.4,29.99 16.5,0 25.3,-13.39 19.6,-29.99"/>
      </g>
      <g transform="scale(1.50277)" id="g394">
        <path id="path396" style="fill:#ffb27d;fill-opacity:1;fill-rule:nonzero;stroke:none" d="m 16171.1,5370.23 c -16.8,7.18 -146.5,-16.44 -183.5,-23.36 -117.4,23.02 -503.4,100.15 -522.3,124.3 -22.1,28.55 -70.5,897.35 -125.9,911.86 0,0 -109.1,66.21 -214.6,-59.43 -105.4,-125.63 75,-1023.64 231.2,-1069.83 173.6,-51.23 674.9,8.19 674.9,8.19 v 0.07 c 41.2,-14.11 113.2,-22.03 151.4,-34.74 50.4,-16.83 95.3,-2.79 106.5,16.84 11.2,19.56 -98.1,117.65 -117.7,126.1"/>
      </g>
      <g transform="scale(1.42351)" id="g398">
        <path id="path400" style="fill:#1c468a;fill-opacity:1;fill-rule:nonzero;stroke:none" d="m 16234.8,6850.04 c 0,0 -236.5,-21.28 -305.1,-99.05 -68.7,-77.76 -88.8,-288.51 -88.8,-288.51 0,0 208.2,-168.11 459.1,-102.84 l -65.2,490.4"/>
      </g>
      <g transform="scale(1.8681)" id="g402">
        <path id="path404" style="fill:#2e3552;fill-opacity:1;fill-rule:nonzero;stroke:none" d="M 16282.6,2236.55 H 973.872 c -9.56,0 -17.38,7.82 -17.38,17.4 v 5.94 c 0,9.53 7.82,17.35 17.38,17.35 H 16282.6 c 9.6,0 17.4,-7.82 17.4,-17.35 v -5.94 c 0,-9.58 -7.8,-17.4 -17.4,-17.4"/>
      </g>
      <g id="g406">
        <g clip-path="url(#clipPath412)" id="g408">
          <path id="path414" style="fill:#ffb27d;fill-opacity:1;fill-rule:nonzero;stroke:none" d="m 13443.3,10332.8 c 0,0 31.4,124.5 83.8,131.1 52.5,6.5 131.4,39.7 147.9,-2.1 16.5,-41.8 -125.3,-258.2 -181.8,-204.7 -56.5,53.4 -49.9,75.7 -49.9,75.7"/>
          <path id="path416" style="fill:#2c3a64;fill-opacity:1;fill-rule:nonzero;stroke:none" d="m 12753.5,7712.9 c 45.8,-132.5 75.1,-237 74.8,-286.6 -1.2,-221.7 436.9,-1222.8 436.9,-1222.8 141.4,-59.9 303.1,0.6 303.1,0.6 -48,138.7 -314.7,1380.2 -456.3,2137.5 -59.5,318 -99.9,540.4 -99.9,540.4 l -773.8,87.4 c 0,0 356.4,-796.6 515.2,-1256.5"/>
          <path id="path418" style="fill:#2c3a64;fill-opacity:1;fill-rule:nonzero;stroke:none" d="m 12238.3,8969.4 c 0,0 356.4,-796.6 515.2,-1256.5 l 358.5,628.7 c -59.5,318 -99.9,540.4 -99.9,540.4 l -773.8,87.4"/>
          <path id="path420" style="fill:#2c3a64;fill-opacity:1;fill-rule:nonzero;stroke:none" d="m 12651.9,8799.5 c 0,0 212.8,-2211.9 262.3,-2640.2 0,0 -131.6,-39.7 -293.4,21.8 0,0 -294.2,1027.9 -327.5,1337.5 -33.2,309.6 -365.9,1266.8 -309.6,1355.8 56.3,89.1 668.2,-74.9 668.2,-74.9"/>
          <path id="path422" style="fill:#ffb27d;fill-opacity:1;fill-rule:nonzero;stroke:none" d="m 12107.4,10685.7 c 0,0 81.8,-196.6 84.8,-255.3 3,-58.7 -183.8,-90.6 -278.5,-42.1 -94.7,48.5 -79.6,91.7 -79.6,91.7 0,0 -43.2,199.9 -36,215.9 7.2,16.1 309.3,-10.2 309.3,-10.2"/>
          <path id="path424" style="fill:#bc3f3f;fill-opacity:1;fill-rule:nonzero;stroke:none" d="m 13421.2,10355.7 c 0,0 -334.3,-415.7 -348.1,-469.2 -192,223.7 -487.3,504.2 -500.7,515.2 -37.8,30.7 -105.7,49.4 -174.4,60.7 -94.2,15.6 -189.9,17.4 -211.6,17.6 -3.2,0.4 -4.8,0.4 -4.7,0.2 8.8,-33.2 -27.2,-94.6 -106.5,-100.1 -94,-6.1 -226.5,44.8 -241.3,100.1 -0.7,2.7 -220.4,-11.1 -181.8,-421.3 0.4,-5.5 0.9,-11.6 2,-17.7 14.8,-137.7 58.1,-317.9 146.5,-555.1 31.7,-85.1 136.3,-717 167.4,-717.6 0,0 26.9,-13.8 86.8,-30.9 31.1,-8.9 71.9,-18.9 122,-28.2 106.5,-19.9 256.7,-37.6 458.4,-37.6 368.8,0 462.3,105 462.3,105 19.8,0 -205.1,508.3 -322.9,944.9 122.4,-71.3 252.4,-139.4 266.3,-147.8 61.7,-37.5 105,-53 135.2,-54.9 l 0.2,-0.1 c 0,0 1.5,-0.2 4.1,-0.1 17.7,-0.4 30.6,4.3 39.8,11.9 27.8,14.6 65.7,46.8 104.1,117.6 50.7,93.3 110.9,282.1 162.7,408.1 28.6,69.7 50.7,145.9 79.9,208.8 0,0 -71.3,76.3 -145.7,90.5"/>
          <path id="path426" style="fill:#a02e2e;fill-opacity:1;fill-rule:nonzero;stroke:none" d="m 12222.3,9331.9 c 73.6,-305.8 -66.5,-500.9 -167.5,-594.3 -59.9,17.1 -86.8,30.9 -86.8,30.9 -31.1,0.6 -135.7,632.5 -167.4,717.6 -88.4,237.2 -131.7,417.4 -146.5,555.1 8,9.4 12.7,14.4 12.7,14.4 0,0 446.2,-270.4 555.5,-723.7"/>
          <path id="path428" style="fill:#e8945b;fill-opacity:1;fill-rule:nonzero;stroke:none" d="m 12116.4,10663.6 c 0,0 -47.1,-106.8 -126.9,-107.8 -79.9,-0.9 -190.3,106.1 -190.3,106.1 l 317.2,1.7"/>
          <path id="path430" style="fill:#ffb27d;fill-opacity:1;fill-rule:nonzero;stroke:none" d="m 12122.3,10668.9 c -16.5,-16.5 -57.3,-39.3 -91.6,-54.4 -26,-11.4 -58,-12.1 -90.2,-1.9 -48.3,15.2 -121.6,39 -141.3,49.3 -46.7,24.3 -57.3,73.5 -77.6,141.9 -24.2,81 -49.4,144.6 -52.9,191.3 -4.2,55.9 22.7,87.7 119.5,96.3 177.8,15.8 265.8,-29.8 285.4,-90.8 5.2,-16.4 10.1,-32 14.6,-46.8 58.3,-190.3 61.3,-257.8 34.1,-284.9"/>
          <path id="path432" style="fill:#2c3a64;fill-opacity:1;fill-rule:nonzero;stroke:none" d="m 12080.7,10978.1 c 0,0 -41.6,43.9 -93,26.7 -51.4,-17.2 -44.3,-65.1 -142.1,-57.4 -97.8,7.6 -132.9,52.9 -144,30.3 -11.2,-22.7 14.7,-156.5 14.7,-156.5 0,0 -310.1,438.9 80,438.9 0,0 395.6,24.3 321.9,-421.9 l -37.5,139.9"/>
          <path id="path434" style="fill:#ffb27d;fill-opacity:1;fill-rule:nonzero;stroke:none" d="m 12900.9,10562.4 -0.4,-0.3 0.4,0.3"/>
          <path id="path436" style="fill:#d35c2b;fill-opacity:1;fill-rule:nonzero;stroke:none" d="m 12943.1,11189.5 c 1.3,7.3 2.4,12.1 2.4,12.1 -1.5,-3.4 -2.3,-7.5 -2.4,-12.1"/>
          <path id="path438" style="fill:#2c3a64;fill-opacity:1;fill-rule:nonzero;stroke:none" d="m 13563.8,9848.7 -63.9,9.7 179.3,1016.5 z"/>
          <path id="path440" style="fill:#ffb27d;fill-opacity:1;fill-rule:nonzero;stroke:none" d="m 13474.6,10370 c 0,0 59,-58.6 68.9,-26.5 9.8,32 84.7,68.9 90.2,83.9 5.5,15 -86.1,21.6 -99.5,22 -13.4,0.3 -69.2,-58.8 -59.6,-79.4"/>
          <path id="path442" style="fill:#1c468a;fill-opacity:1;fill-rule:nonzero;stroke:none" d="m 11968.2,10392.7 c 5.1,-1.4 74.1,17.3 168,6.1 0,0 7,-85 -17.3,-91.9 -24.3,-6.9 -75.4,-1.1 -86.1,0 -10.7,1.2 -64.6,85.8 -64.6,85.8"/>
          <path id="path444" style="fill:#1c468a;fill-opacity:1;fill-rule:nonzero;stroke:none" d="m 12032.8,10306.9 c 0,0 284.4,-1194.4 360,-1270.4 75.7,-76 135.1,-99.8 135.1,-99.8 0,0 59.7,72.2 58.7,106.7 -1,34.6 -467.7,1263.5 -467.7,1263.5 h -86.1"/>
          <path id="path446" style="fill:#ffb27d;fill-opacity:1;fill-rule:nonzero;stroke:none" d="m 12431.2,9141.3 c 0,0 193.3,-62.6 251.5,-64.9 58.2,-2.3 126.6,97.1 103.9,126.4 -6.6,8.4 -91,-30.5 -115,-17.3 -36.5,20 -83.3,4.8 -112.6,1.3 -29.3,-3.4 -141.8,59.8 -141.8,59.8 l 14,-105.3"/>
          <path id="path448" style="fill:#bc3f3f;fill-opacity:1;fill-rule:nonzero;stroke:none" d="m 12499,9247 c -314.3,222 -534.9,333.8 -604,366.8 19.2,164.1 10.6,425.2 -61,866.5 0,0 -304.9,-33.8 -337.5,-140.4 -47,-153.6 63.6,-581.2 155.2,-923.3 0,0 1.3,-0.8 3.5,-2.1 6.6,-11.6 16.1,-22.9 29.4,-33.6 129.7,-104.3 817.1,-304.5 817.1,-304.5 49.8,72.3 -2.7,170.6 -2.7,170.6"/>
          <path id="path450" style="fill:#fcecdb;fill-opacity:1;fill-rule:nonzero;stroke:none" d="m 12639.3,9216.4 -515.6,153.4 -16.3,-73.8 552.3,-155.5 -20.4,75.9"/>
          <path id="path452" style="fill:#f4d2b8;fill-opacity:1;fill-rule:nonzero;stroke:none" d="m 12900.1,9415.3 -260.8,-198.9 20.4,-75.9 300.1,204.8 -59.7,70"/>
          <path id="path454" style="fill:#2c3a64;fill-opacity:1;fill-rule:nonzero;stroke:none" d="m 12665.5,9118.7 -588.3,179.5 1.9,15.2 580.6,-172.9 5.8,-21.8"/>
          <path id="path456" style="fill:#2c3a64;fill-opacity:1;fill-rule:nonzero;stroke:none" d="m 12665.5,9118.7 333.1,231.4 -13.5,13.7 -325.4,-223.3 5.8,-21.8"/>
          <path id="path458" style="fill:#1c468a;fill-opacity:1;fill-rule:nonzero;stroke:none" d="m 11968.2,10392.7 c 0,0 -134.8,140 -145.8,130.8 -11,-9.3 -24.9,-40.2 -18.4,-48.9 6.6,-8.7 180.6,-106.9 180.6,-106.9 l -16.4,25"/>
          <path id="path460" style="fill:#1c468a;fill-opacity:1;fill-rule:nonzero;stroke:none" d="m 12136.2,10398.8 c 0,0 27,139.4 31.4,134.1 4.5,-5.4 48,-43.9 49.5,-53.6 1.6,-9.7 -54.2,-88.4 -80.2,-94.4 -26,-6 -0.7,13.9 -0.7,13.9"/>
        </g>
      </g>
    </g>
  </g>
</svg>